<svg width="22" height="21" viewBox="0 0 22 21" fill="none" xmlns="http://www.w3.org/2000/svg">
<mask id="path-1-outside-1_1074_21060" maskUnits="userSpaceOnUse" x="-0.452148" y="0.12793" width="22" height="21" fill="black">
<rect fill="white" x="-0.452148" y="0.12793" width="22" height="21"/>
<path fill-rule="evenodd" clip-rule="evenodd" d="M12.0299 1.67128C11.5334 0.946813 10.4642 0.946813 9.96768 1.67128L7.42946 5.37486C7.26692 5.61203 7.02759 5.78591 6.75181 5.8672L2.44514 7.13673C1.6027 7.38507 1.27231 8.4019 1.80789 9.09798L4.54585 12.6564C4.72118 12.8843 4.81259 13.1657 4.80469 13.4531L4.68125 17.9413C4.6571 18.8192 5.52207 19.4476 6.34958 19.1534L10.58 17.6491C10.8509 17.5527 11.1467 17.5527 11.4176 17.6491L15.648 19.1534C16.4755 19.4476 17.3404 18.8192 17.3163 17.9413L17.1929 13.4531C17.185 13.1657 17.2764 12.8843 17.4517 12.6564L20.1897 9.09798C20.7252 8.4019 20.3948 7.38507 19.5524 7.13673L15.2457 5.8672C14.97 5.78591 14.7306 5.61202 14.5681 5.37486L12.0299 1.67128ZM12.1151 7.81406C12.7254 7.59061 13.2949 8.00047 13.4211 8.57243C13.5881 9.32941 13.2629 9.91166 12.7244 10.4047C12.2974 10.7957 11.804 11.0713 11.4119 11.2903L11.4119 11.2903L11.4118 11.2904C11.293 11.3567 11.1835 11.4179 11.0879 11.4755C10.6778 11.7228 10.2856 11.9767 10.0017 12.3031C9.69715 12.6532 9.52573 13.0748 9.52573 13.6181C9.52573 14.4734 10.1828 15.1668 10.9933 15.1668C11.8038 15.1668 12.4608 14.4734 12.4608 13.6181C12.4608 13.4571 12.4373 13.3009 12.3935 13.1537C12.361 13.0445 12.3174 12.9406 12.2642 12.8435C12.1442 12.6245 11.8786 12.5497 11.6711 12.6764C11.4636 12.803 11.3927 13.0832 11.5127 13.3022C11.5345 13.3418 11.5522 13.384 11.5653 13.4282C11.583 13.4876 11.5927 13.5513 11.5927 13.6181C11.5927 13.9675 11.3243 14.2507 10.9933 14.2507C10.6622 14.2507 10.3938 13.9675 10.3938 13.6181C10.3938 13.3087 10.4808 13.107 10.6413 12.9226C10.8224 12.7143 11.102 12.5222 11.5187 12.2709C11.5816 12.233 11.6651 12.1865 11.7635 12.1318L11.7635 12.1318C12.1542 11.9146 12.7804 11.5663 13.2934 11.0966C13.9537 10.4919 14.537 9.58998 14.2666 8.36467C14.0373 7.32537 12.9835 6.52642 11.8306 6.94859C11.4618 7.08361 11.18 7.28666 10.9933 7.53557C10.8065 7.28666 10.5247 7.08361 10.156 6.94859C9.00299 6.52642 7.94925 7.32537 7.71992 8.36467C7.55004 9.13452 7.81548 9.82436 8.2092 10.3628C8.6008 10.8983 9.14694 11.3269 9.64565 11.6193C9.85521 11.7421 10.1195 11.6624 10.2359 11.4413C10.3523 11.2202 10.2768 10.9413 10.0672 10.8185C9.63579 10.5655 9.1945 10.2106 8.89647 9.80309C8.60058 9.39847 8.4742 8.9858 8.56541 8.57243C8.69162 8.00047 9.26112 7.59061 9.87139 7.81406C10.2613 7.95684 10.3592 8.15126 10.3823 8.24888C10.4105 8.36843 10.3638 8.467 10.3218 8.50436C10.1384 8.66736 10.115 8.95632 10.2695 9.14978C10.4239 9.34325 10.6978 9.36795 10.8811 9.20496C10.9213 9.16924 10.9587 9.13011 10.9933 9.08805C11.0278 9.13011 11.0652 9.16924 11.1054 9.20496C11.2888 9.36795 11.5626 9.34325 11.717 9.14978C11.8715 8.95632 11.8481 8.66736 11.6648 8.50436C11.6227 8.467 11.576 8.36843 11.6042 8.24888C11.6273 8.15126 11.7252 7.95684 12.1151 7.81406Z"/>
</mask>
<path fill-rule="evenodd" clip-rule="evenodd" d="M12.0299 1.67128C11.5334 0.946813 10.4642 0.946813 9.96768 1.67128L7.42946 5.37486C7.26692 5.61203 7.02759 5.78591 6.75181 5.8672L2.44514 7.13673C1.6027 7.38507 1.27231 8.4019 1.80789 9.09798L4.54585 12.6564C4.72118 12.8843 4.81259 13.1657 4.80469 13.4531L4.68125 17.9413C4.6571 18.8192 5.52207 19.4476 6.34958 19.1534L10.58 17.6491C10.8509 17.5527 11.1467 17.5527 11.4176 17.6491L15.648 19.1534C16.4755 19.4476 17.3404 18.8192 17.3163 17.9413L17.1929 13.4531C17.185 13.1657 17.2764 12.8843 17.4517 12.6564L20.1897 9.09798C20.7252 8.4019 20.3948 7.38507 19.5524 7.13673L15.2457 5.8672C14.97 5.78591 14.7306 5.61202 14.5681 5.37486L12.0299 1.67128ZM12.1151 7.81406C12.7254 7.59061 13.2949 8.00047 13.4211 8.57243C13.5881 9.32941 13.2629 9.91166 12.7244 10.4047C12.2974 10.7957 11.804 11.0713 11.4119 11.2903L11.4119 11.2903L11.4118 11.2904C11.293 11.3567 11.1835 11.4179 11.0879 11.4755C10.6778 11.7228 10.2856 11.9767 10.0017 12.3031C9.69715 12.6532 9.52573 13.0748 9.52573 13.6181C9.52573 14.4734 10.1828 15.1668 10.9933 15.1668C11.8038 15.1668 12.4608 14.4734 12.4608 13.6181C12.4608 13.4571 12.4373 13.3009 12.3935 13.1537C12.361 13.0445 12.3174 12.9406 12.2642 12.8435C12.1442 12.6245 11.8786 12.5497 11.6711 12.6764C11.4636 12.803 11.3927 13.0832 11.5127 13.3022C11.5345 13.3418 11.5522 13.384 11.5653 13.4282C11.583 13.4876 11.5927 13.5513 11.5927 13.6181C11.5927 13.9675 11.3243 14.2507 10.9933 14.2507C10.6622 14.2507 10.3938 13.9675 10.3938 13.6181C10.3938 13.3087 10.4808 13.107 10.6413 12.9226C10.8224 12.7143 11.102 12.5222 11.5187 12.2709C11.5816 12.233 11.6651 12.1865 11.7635 12.1318L11.7635 12.1318C12.1542 11.9146 12.7804 11.5663 13.2934 11.0966C13.9537 10.4919 14.537 9.58998 14.2666 8.36467C14.0373 7.32537 12.9835 6.52642 11.8306 6.94859C11.4618 7.08361 11.18 7.28666 10.9933 7.53557C10.8065 7.28666 10.5247 7.08361 10.156 6.94859C9.00299 6.52642 7.94925 7.32537 7.71992 8.36467C7.55004 9.13452 7.81548 9.82436 8.2092 10.3628C8.6008 10.8983 9.14694 11.3269 9.64565 11.6193C9.85521 11.7421 10.1195 11.6624 10.2359 11.4413C10.3523 11.2202 10.2768 10.9413 10.0672 10.8185C9.63579 10.5655 9.1945 10.2106 8.89647 9.80309C8.60058 9.39847 8.4742 8.9858 8.56541 8.57243C8.69162 8.00047 9.26112 7.59061 9.87139 7.81406C10.2613 7.95684 10.3592 8.15126 10.3823 8.24888C10.4105 8.36843 10.3638 8.467 10.3218 8.50436C10.1384 8.66736 10.115 8.95632 10.2695 9.14978C10.4239 9.34325 10.6978 9.36795 10.8811 9.20496C10.9213 9.16924 10.9587 9.13011 10.9933 9.08805C11.0278 9.13011 11.0652 9.16924 11.1054 9.20496C11.2888 9.36795 11.5626 9.34325 11.717 9.14978C11.8715 8.95632 11.8481 8.66736 11.6648 8.50436C11.6227 8.467 11.576 8.36843 11.6042 8.24888C11.6273 8.15126 11.7252 7.95684 12.1151 7.81406Z" fill="url(#paint0_radial_1074_21060)"/>
<path d="M9.96768 1.67128L9.14281 1.10596V1.10596L9.96768 1.67128ZM12.0299 1.67128L12.8547 1.10596V1.10596L12.0299 1.67128ZM7.42946 5.37486L8.25433 5.94018L8.25433 5.94018L7.42946 5.37486ZM6.75181 5.8672L6.46906 4.90801L6.46906 4.90801L6.75181 5.8672ZM2.44514 7.13673L2.72789 8.09592H2.72789L2.44514 7.13673ZM1.80789 9.09798L1.01534 9.70778L1.80789 9.09798ZM4.54585 12.6564L3.7533 13.2663L3.7533 13.2663L4.54585 12.6564ZM4.80469 13.4531L5.80431 13.4806V13.4806L4.80469 13.4531ZM4.68125 17.9413L5.68087 17.9688L4.68125 17.9413ZM6.34958 19.1534L6.68463 20.0956H6.68463L6.34958 19.1534ZM10.58 17.6491L10.2449 16.7069H10.2449L10.58 17.6491ZM11.4176 17.6491L11.7526 16.7069L11.7526 16.7069L11.4176 17.6491ZM15.648 19.1534L15.3129 20.0956H15.3129L15.648 19.1534ZM17.3163 17.9413L18.3159 17.9138V17.9138L17.3163 17.9413ZM17.1929 13.4531L18.1925 13.4256V13.4256L17.1929 13.4531ZM17.4517 12.6564L18.2442 13.2663L18.2443 13.2663L17.4517 12.6564ZM20.1897 9.09798L20.9822 9.70778V9.70778L20.1897 9.09798ZM19.5524 7.13673L19.8352 6.17754L19.5524 7.13673ZM15.2457 5.8672L14.963 6.82639L14.963 6.8264L15.2457 5.8672ZM14.5681 5.37486L15.393 4.80954L15.393 4.80954L14.5681 5.37486ZM13.4211 8.57243L12.4446 8.78791V8.78791L13.4211 8.57243ZM12.1151 7.81406L11.7713 6.87503H11.7713L12.1151 7.81406ZM12.7244 10.4047L13.3998 11.1422L13.3998 11.1422L12.7244 10.4047ZM11.4119 11.2903L10.9242 10.4172L10.9158 10.4221L11.4119 11.2903ZM11.4119 11.2903L11.8591 12.1848L11.8839 12.1724L11.908 12.1586L11.4119 11.2903ZM11.4118 11.2904L10.9646 10.3959L10.9442 10.4062L10.9242 10.4173L11.4118 11.2904ZM11.0879 11.4755L10.5716 10.6192L10.5716 10.6192L11.0879 11.4755ZM10.0017 12.3031L10.7562 12.9594L10.7562 12.9594L10.0017 12.3031ZM12.3935 13.1537L11.4351 13.439L11.4351 13.439L12.3935 13.1537ZM12.2642 12.8435L13.1411 12.3628V12.3628L12.2642 12.8435ZM11.6711 12.6764L12.1922 13.5299L12.1922 13.5299L11.6711 12.6764ZM11.5127 13.3022L10.6359 13.7829L10.6359 13.7829L11.5127 13.3022ZM11.5653 13.4282L10.6069 13.7135L10.6069 13.7135L11.5653 13.4282ZM10.6413 12.9226L11.3957 13.5789L11.3957 13.5789L10.6413 12.9226ZM11.5187 12.2709L11.0023 11.4145L11.0023 11.4146L11.5187 12.2709ZM11.7635 12.1318L11.2894 11.2512L11.2775 11.2578L11.7635 12.1318ZM11.7635 12.1318L12.2377 13.0123L12.2495 13.0057L11.7635 12.1318ZM13.2934 11.0966L13.9687 11.8341L13.2934 11.0966ZM14.2666 8.36467L13.2901 8.58015L14.2666 8.36467ZM11.8306 6.94859L12.1744 7.88762H12.1744L11.8306 6.94859ZM10.9933 7.53557L10.1933 8.13564L10.9933 9.20205L11.7932 8.13563L10.9933 7.53557ZM10.156 6.94859L10.4998 6.00956L10.4998 6.00956L10.156 6.94859ZM7.71992 8.36467L6.74341 8.14919V8.14919L7.71992 8.36467ZM8.2092 10.3628L9.0164 9.77248L8.2092 10.3628ZM9.64565 11.6193L10.1514 10.7566L9.64565 11.6193ZM10.2359 11.4413L9.35101 10.9755L9.35101 10.9755L10.2359 11.4413ZM10.0672 10.8185L10.573 9.95577H10.573L10.0672 10.8185ZM8.89647 9.80309L9.70366 9.2128L8.89647 9.80309ZM8.56541 8.57243L9.54192 8.78791L9.54192 8.78791L8.56541 8.57243ZM9.87139 7.81406L10.2152 6.87503H10.2152L9.87139 7.81406ZM10.3823 8.24888L11.3555 8.01921L11.3555 8.0192L10.3823 8.24888ZM10.3218 8.50436L10.9862 9.25171L10.9862 9.2517L10.3218 8.50436ZM10.2695 9.14978L9.48799 9.7737L10.2695 9.14978ZM10.8811 9.20496L10.2167 8.45761L10.2167 8.45761L10.8811 9.20496ZM10.9933 9.08805L11.7663 8.45371L10.9933 7.5116L10.2202 8.45371L10.9933 9.08805ZM11.1054 9.20496L11.7699 8.45761L11.7699 8.45761L11.1054 9.20496ZM11.717 9.14978L10.9356 8.52586L10.9356 8.52587L11.717 9.14978ZM11.6648 8.50436L12.3292 7.75702L12.3292 7.75701L11.6648 8.50436ZM11.6042 8.24888L12.5775 8.47855L12.5775 8.47854L11.6042 8.24888ZM10.7926 2.2366C10.8919 2.09171 11.1057 2.09171 11.205 2.2366L12.8547 1.10596C11.961 -0.19808 10.0365 -0.198079 9.14281 1.10596L10.7926 2.2366ZM8.25433 5.94018L10.7926 2.2366L9.14281 1.10596L6.60459 4.80954L8.25433 5.94018ZM7.03456 6.8264C7.53097 6.68006 7.96176 6.36708 8.25433 5.94018L6.60459 4.80954C6.57208 4.85697 6.52421 4.89175 6.46906 4.90801L7.03456 6.8264ZM2.72789 8.09592L7.03456 6.8264L6.46906 4.90801L2.16238 6.17754L2.72789 8.09592ZM2.60044 8.48817C2.49332 8.34896 2.5594 8.14559 2.72789 8.09592L2.16238 6.17754C0.645996 6.62454 0.0512965 8.45484 1.01534 9.70778L2.60044 8.48817ZM5.3384 12.0466L2.60044 8.48817L1.01534 9.70778L3.7533 13.2663L5.3384 12.0466ZM5.80431 13.4806C5.81854 12.9632 5.65399 12.4568 5.3384 12.0466L3.7533 13.2663C3.78836 13.3118 3.80665 13.3681 3.80506 13.4256L5.80431 13.4806ZM5.68087 17.9688L5.80431 13.4806L3.80506 13.4256L3.68162 17.9138L5.68087 17.9688ZM6.01454 18.2112C5.84903 18.27 5.67604 18.1443 5.68087 17.9688L3.68162 17.9138C3.63816 19.4941 5.19511 20.6253 6.68463 20.0956L6.01454 18.2112ZM10.2449 16.7069L6.01453 18.2112L6.68463 20.0956L10.915 18.5913L10.2449 16.7069ZM11.7526 16.7069C11.265 16.5335 10.7325 16.5335 10.2449 16.7069L10.915 18.5913C10.9692 18.572 11.0284 18.572 11.0825 18.5913L11.7526 16.7069ZM15.983 18.2112L11.7526 16.7069L11.0825 18.5913L15.3129 20.0956L15.983 18.2112ZM16.3167 17.9688C16.3215 18.1443 16.1485 18.27 15.983 18.2112L15.3129 20.0956C16.8024 20.6253 18.3594 19.4941 18.3159 17.9138L16.3167 17.9688ZM16.1932 13.4806L16.3167 17.9688L18.3159 17.9138L18.1925 13.4256L16.1932 13.4806ZM16.6591 12.0466C16.3436 12.4568 16.179 12.9632 16.1932 13.4806L18.1925 13.4256C18.1909 13.3681 18.2092 13.3118 18.2442 13.2663L16.6591 12.0466ZM19.3971 8.48817L16.6591 12.0466L18.2443 13.2663L20.9822 9.70778L19.3971 8.48817ZM19.2697 8.09592C19.4381 8.14559 19.5042 8.34896 19.3971 8.48817L20.9822 9.70778C21.9463 8.45484 21.3516 6.62454 19.8352 6.17754L19.2697 8.09592ZM14.963 6.8264L19.2697 8.09592L19.8352 6.17754L15.5285 4.90801L14.963 6.8264ZM13.7432 5.94018C14.0358 6.36708 14.4666 6.68006 14.963 6.82639L15.5285 4.90801C15.4733 4.89175 15.4255 4.85697 15.393 4.80954L13.7432 5.94018ZM11.205 2.2366L13.7432 5.94018L15.393 4.80954L12.8547 1.10596L11.205 2.2366ZM14.3976 8.35695C14.1659 7.30687 13.0534 6.40558 11.7713 6.87503L12.459 8.7531C12.465 8.7509 12.466 8.75124 12.4625 8.75167C12.459 8.75209 12.4535 8.75231 12.4467 8.75155C12.4324 8.74993 12.4234 8.74532 12.4209 8.74377C12.4193 8.74276 12.4238 8.74529 12.4301 8.75429C12.4363 8.76309 12.4417 8.77464 12.4446 8.78791L14.3976 8.35695ZM13.3998 11.1422C14.0859 10.5139 14.6703 9.59255 14.3976 8.35695L12.4446 8.78791C12.506 9.06627 12.4398 9.30937 12.0491 9.66718L13.3998 11.1422ZM11.8995 12.1634C12.2814 11.9501 12.8746 11.6231 13.3998 11.1422L12.0491 9.66718C11.7202 9.96837 11.3266 10.1926 10.9242 10.4173L11.8995 12.1634ZM11.908 12.1586L11.908 12.1586L10.9158 10.4221L10.9157 10.4221L11.908 12.1586ZM11.8591 12.1848L11.8591 12.1848L10.9647 10.3959L10.9646 10.3959L11.8591 12.1848ZM11.6043 12.3319C11.6828 12.2846 11.7767 12.232 11.8995 12.1634L10.9242 10.4173C10.8093 10.4815 10.6842 10.5513 10.5716 10.6192L11.6043 12.3319ZM10.7562 12.9594C10.9249 12.7655 11.1894 12.5821 11.6043 12.3319L10.5716 10.6192C10.1663 10.8635 9.64638 11.1879 9.24727 11.6467L10.7562 12.9594ZM10.5257 13.6181C10.5257 13.3144 10.611 13.1263 10.7562 12.9594L9.24727 11.6467C8.7833 12.1801 8.52573 12.8351 8.52573 13.6181H10.5257ZM10.9933 14.1668C10.7851 14.1668 10.5257 13.9725 10.5257 13.6181H8.52573C8.52573 14.9744 9.58048 16.1668 10.9933 16.1668V14.1668ZM11.4608 13.6181C11.4608 13.9725 11.2015 14.1668 10.9933 14.1668V16.1668C12.406 16.1668 13.4608 14.9744 13.4608 13.6181H11.4608ZM11.4351 13.439C11.4515 13.4942 11.4608 13.5543 11.4608 13.6181H13.4608C13.4608 13.3598 13.4232 13.1076 13.352 12.8685L11.4351 13.439ZM11.3873 13.3242C11.4067 13.3595 11.4229 13.3979 11.4351 13.439L13.352 12.8685C13.2992 12.6911 13.2282 12.5217 13.1411 12.3628L11.3873 13.3242ZM12.1922 13.5299C11.8897 13.7146 11.5284 13.5816 11.3873 13.3242L13.1411 12.3628C12.7599 11.6674 11.8676 11.3848 11.1501 11.8228L12.1922 13.5299ZM12.3896 12.8215C12.515 13.0501 12.4606 13.3661 12.1922 13.5299L11.1501 11.8228C10.4667 12.24 10.2705 13.1163 10.6359 13.7829L12.3896 12.8215ZM12.5238 13.143C12.4903 13.0306 12.4452 12.9229 12.3896 12.8215L10.6359 13.7829C10.6237 13.7607 10.614 13.7374 10.6069 13.7135L12.5238 13.143ZM12.5927 13.6181C12.5927 13.454 12.5688 13.2943 12.5238 13.143L10.6069 13.7135C10.5972 13.6809 10.5927 13.6485 10.5927 13.6181H12.5927ZM10.9933 15.2507C11.9266 15.2507 12.5927 14.4684 12.5927 13.6181H10.5927C10.5927 13.4666 10.722 13.2507 10.9933 13.2507V15.2507ZM9.39385 13.6181C9.39385 14.4684 10.0599 15.2507 10.9933 15.2507V13.2507C11.2645 13.2507 11.3938 13.4666 11.3938 13.6181H9.39385ZM9.88678 12.2662C9.56682 12.634 9.39385 13.0692 9.39385 13.6181H11.3938C11.3938 13.5875 11.396 13.5713 11.3969 13.5659C11.3977 13.5612 11.3975 13.5645 11.3944 13.5727C11.3913 13.581 11.3877 13.5878 11.3855 13.5914C11.3836 13.5945 11.3856 13.5906 11.3957 13.5789L9.88678 12.2662ZM11.0023 11.4146C10.5928 11.6615 10.1839 11.9247 9.88678 12.2662L11.3957 13.5789C11.461 13.5039 11.6112 13.3829 12.035 13.1273L11.0023 11.4146ZM11.2775 11.2578C11.1851 11.3092 11.0837 11.3654 11.0023 11.4145L12.035 13.1273C12.0794 13.1005 12.145 13.0639 12.2495 13.0058L11.2775 11.2578ZM11.2894 11.2513L11.2894 11.2513L12.2376 13.0123L12.2376 13.0122L11.2894 11.2513ZM12.618 10.3591C12.2038 10.7384 11.6778 11.0352 11.2776 11.2578L12.2495 13.0057C12.6305 12.7939 13.357 12.3942 13.9687 11.8341L12.618 10.3591ZM13.2901 8.58015C13.4537 9.3215 13.1364 9.88448 12.618 10.3591L13.9687 11.8341C14.7711 11.0994 15.6203 9.85845 15.2431 8.14919L13.2901 8.58015ZM12.1744 7.88762C12.4419 7.78965 12.6698 7.83275 12.8591 7.95287C13.0659 8.08418 13.2316 8.31496 13.2901 8.58015L15.2431 8.14919C14.9122 6.64938 13.3268 5.33581 11.4867 6.00956L12.1744 7.88762ZM11.7932 8.13563C11.8443 8.06748 11.9541 7.9683 12.1744 7.88762L11.4867 6.00956C10.9695 6.19893 10.5156 6.50584 10.1933 6.9355L11.7932 8.13563ZM9.81214 7.88762C10.0325 7.9683 10.1422 8.06748 10.1933 8.13564L11.7932 6.9355C11.4709 6.50584 11.017 6.19893 10.4998 6.00956L9.81214 7.88762ZM8.69643 8.58015C8.75494 8.31496 8.92058 8.08418 9.12746 7.95287C9.31672 7.83275 9.54458 7.78965 9.81214 7.88762L10.4998 6.00956C8.65974 5.33581 7.07436 6.64938 6.74341 8.14919L8.69643 8.58015ZM9.0164 9.77248C8.73046 9.38148 8.60787 8.98147 8.69643 8.58015L6.74341 8.14919C6.49221 9.28757 6.90049 10.2672 7.40201 10.9531L9.0164 9.77248ZM10.1514 10.7566C9.73252 10.511 9.30461 10.1666 9.0164 9.77248L7.40201 10.9531C7.89699 11.6299 8.56137 12.1428 9.13991 12.482L10.1514 10.7566ZM9.35101 10.9755C9.48676 10.7176 9.84447 10.5767 10.1514 10.7566L9.13991 12.482C9.86594 12.9076 10.7522 12.6073 11.1207 11.9071L9.35101 10.9755ZM9.56149 11.6811C9.28849 11.5211 9.23015 11.205 9.35101 10.9755L11.1207 11.9071C11.4744 11.2353 11.2651 10.3615 10.573 9.95577L9.56149 11.6811ZM8.08928 10.3934C8.49068 10.9423 9.05019 11.3814 9.56149 11.6811L10.573 9.95577C10.2214 9.74965 9.89833 9.47899 9.70366 9.2128L8.08928 10.3934ZM7.5889 8.35695C7.41697 9.13612 7.68337 9.83832 8.08928 10.3934L9.70366 9.2128C9.51778 8.95861 9.53142 8.83549 9.54192 8.78791L7.5889 8.35695ZM10.2152 6.87503C8.93311 6.40558 7.82062 7.30687 7.5889 8.35695L9.54192 8.78791C9.54485 8.77464 9.55025 8.76309 9.5564 8.75429C9.5627 8.74529 9.56722 8.74276 9.56559 8.74377C9.56311 8.74532 9.55409 8.74993 9.5398 8.75155C9.53307 8.75231 9.52755 8.75209 9.52406 8.75167C9.52055 8.75124 9.52156 8.7509 9.52756 8.7531L10.2152 6.87503ZM11.3555 8.0192C11.2409 7.53335 10.8571 7.11006 10.2152 6.87503L9.52756 8.7531C9.61091 8.78362 9.59483 8.79449 9.54574 8.74375C9.49276 8.68899 9.43758 8.59964 9.40901 8.47855L11.3555 8.0192ZM10.9862 9.2517C11.3168 8.95775 11.4638 8.47789 11.3555 8.01921L9.40901 8.47854C9.37985 8.355 9.38721 8.23014 9.42127 8.11765C9.44984 8.02329 9.51353 7.88487 9.65732 7.75702L10.9862 9.2517ZM11.051 8.52586C11.2233 8.7417 11.2062 9.05615 10.9862 9.25171L9.65733 7.75702C9.0707 8.27856 9.00677 9.17095 9.48799 9.7737L11.051 8.52586ZM10.2167 8.45761C10.4686 8.23364 10.8537 8.27876 11.051 8.52586L9.48799 9.7737C9.99419 10.4077 10.927 10.5023 11.5455 9.9523L10.2167 8.45761ZM10.2202 8.45371C10.2179 8.45655 10.2166 8.4577 10.2167 8.45761L11.5455 9.95231C11.626 9.88078 11.6996 9.80368 11.7663 9.72239L10.2202 8.45371ZM11.7699 8.45761C11.77 8.4577 11.7686 8.45655 11.7663 8.45371L10.2202 9.72239C10.2869 9.80368 10.3605 9.88078 10.441 9.95231L11.7699 8.45761ZM10.9356 8.52587C11.1328 8.27876 11.5179 8.23365 11.7699 8.45761L10.441 9.9523C11.0596 10.5023 11.9923 10.4077 12.4985 9.7737L10.9356 8.52587ZM11.0003 9.25171C10.7804 9.05615 10.7632 8.7417 10.9356 8.52586L12.4985 9.7737C12.9798 9.17095 12.9158 8.27856 12.3292 7.75702L11.0003 9.25171ZM10.631 8.0192C10.5227 8.47788 10.6697 8.95776 11.0003 9.25172L12.3292 7.75701C12.473 7.88486 12.5367 8.02328 12.5653 8.11765C12.5993 8.23014 12.6067 8.35501 12.5775 8.47855L10.631 8.0192ZM11.7713 6.87503C11.1294 7.11006 10.7456 7.53335 10.631 8.01921L12.5775 8.47854C12.5489 8.59964 12.4938 8.689 12.4408 8.74375C12.3917 8.79449 12.3756 8.78362 12.459 8.7531L11.7713 6.87503Z" fill="white" mask="url(#path-1-outside-1_1074_21060)"/>
<defs>
<radialGradient id="paint0_radial_1074_21060" cx="0" cy="0" r="1" gradientUnits="userSpaceOnUse" gradientTransform="translate(10.9988 1.12793) rotate(90) scale(18.0988 18.9018)">
<stop stop-color="#C184FF"/>
<stop offset="1" stop-color="#7557EF"/>
</radialGradient>
</defs>
</svg>
