<svg width="14" height="14" viewBox="0 0 14 14" fill="none" xmlns="http://www.w3.org/2000/svg">
<path d="M12.0286 4.92909C11.4161 2.23409 9.0653 1.02075 7.0003 1.02075C7.0003 1.02075 7.0003 1.02075 6.99447 1.02075C4.9353 1.02075 2.57863 2.22825 1.96613 4.92325C1.28363 7.93325 3.12697 10.4824 4.7953 12.0866C5.41363 12.6816 6.20697 12.9791 7.0003 12.9791C7.79363 12.9791 8.58697 12.6816 9.19947 12.0866C10.8678 10.4824 12.7111 7.93909 12.0286 4.92909ZM7.0003 7.85159C5.9853 7.85159 5.1628 7.02909 5.1628 6.01409C5.1628 4.99909 5.9853 4.17659 7.0003 4.17659C8.0153 4.17659 8.8378 4.99909 8.8378 6.01409C8.8378 7.02909 8.0153 7.85159 7.0003 7.85159Z" fill="#B36CFF"/>
</svg>
