<svg width="61" height="60" viewBox="0 0 61 60" fill="none" xmlns="http://www.w3.org/2000/svg">
<rect x="1.5" y="1" width="58" height="58" rx="29" fill="url(#paint0_radial_1074_1478)"/>
<rect x="1.5" y="1" width="58" height="58" rx="29" stroke="url(#paint1_linear_1074_1478)" stroke-width="2"/>
<path fill-rule="evenodd" clip-rule="evenodd" d="M39.2125 21.4549C38.7581 19.4416 36.7079 17.9989 34.511 18.7855C33.1072 19.288 32.7547 19.9724 32.6718 20.316C32.5702 20.7368 32.7383 21.0838 32.8896 21.2153C33.5496 21.789 33.6339 22.8062 33.0778 23.4872C32.5218 24.1682 31.536 24.2551 30.876 23.6814C30.7314 23.5557 30.5965 23.4179 30.4722 23.2699C30.348 23.4179 30.2131 23.5557 30.0684 23.6814C29.4085 24.2551 28.4227 24.1682 27.8666 23.4872C27.3106 22.8062 27.3948 21.789 28.0548 21.2153C28.2061 21.0838 28.3742 20.7368 28.2727 20.316C28.1897 19.9724 27.8372 19.288 26.4335 18.7855C24.2365 17.9989 22.1863 19.4416 21.732 21.4549C21.4036 22.91 21.8586 24.3626 22.9238 25.7868C23.9967 27.2214 25.5853 28.4706 27.1385 29.3609C27.8929 29.7933 28.1647 30.7749 27.7456 31.5533C27.3265 32.3317 26.3752 32.6122 25.6208 32.1798C23.8255 31.1507 21.8594 29.6418 20.4496 27.7569C19.0322 25.8617 18.0766 23.4335 18.6882 20.7236C19.5138 17.0653 23.3072 14.253 27.458 15.739C28.7855 16.2143 29.8001 16.929 30.4722 17.8051C31.1444 16.929 32.159 16.2143 33.4865 15.739C37.6372 14.253 41.4307 17.0653 42.2563 20.7236C43.2296 25.0367 41.1299 28.2116 38.7526 30.34C36.9059 31.9934 34.6515 33.2192 33.2452 33.9838C32.8908 34.1765 32.5902 34.34 32.3636 34.4735C30.8636 35.358 29.8573 36.0342 29.205 36.7674C28.6273 37.4167 28.3143 38.1264 28.3143 39.2158C28.3143 40.4455 29.2805 41.4424 30.4722 41.4424C31.664 41.4424 32.6301 40.4455 32.6301 39.2158C32.6301 38.9804 32.5952 38.7563 32.5316 38.5473C32.4842 38.3917 32.4206 38.2432 32.3424 38.1037C31.9103 37.3329 32.1655 36.3466 32.9125 35.9008C33.6596 35.4549 34.6155 35.7183 35.0476 36.4891C35.2392 36.8309 35.3962 37.1966 35.5132 37.581C35.6709 38.0991 35.7553 38.6488 35.7553 39.2158C35.7553 42.2264 33.39 44.667 30.4722 44.667C27.5544 44.667 25.1891 42.2264 25.1891 39.2158C25.1891 37.3031 25.8062 35.8192 26.9028 34.5867C27.9248 33.438 29.3367 32.5442 30.8131 31.6738C31.1571 31.4709 31.5514 31.2556 31.9792 31.0219C33.3907 30.2511 35.167 29.281 36.7044 27.9045C38.6428 26.169 39.8138 24.1195 39.2125 21.4549Z" fill="white"/>
<defs>
<radialGradient id="paint0_radial_1074_1478" cx="0" cy="0" r="1" gradientUnits="userSpaceOnUse" gradientTransform="translate(30.5 2) rotate(90) scale(56)">
<stop stop-color="#C184FF"/>
<stop offset="1" stop-color="#7557EF"/>
</radialGradient>
<linearGradient id="paint1_linear_1074_1478" x1="2.50006" y1="-4.56302" x2="63.2775" y2="2.38465" gradientUnits="userSpaceOnUse">
<stop stop-color="#CF91FF"/>
<stop offset="0.609375" stop-color="#35FAEE"/>
<stop offset="0.96875" stop-color="#FFE999"/>
</linearGradient>
</defs>
</svg>
