<svg width="26" height="26" viewBox="0 0 26 26" fill="none" xmlns="http://www.w3.org/2000/svg">
<rect x="1" y="1" width="24" height="24" rx="12" fill="url(#paint0_radial_199_8387)"/>
<rect x="1" y="1" width="24" height="24" rx="12" stroke="url(#paint1_linear_199_8387)"/>
<path fill-rule="evenodd" clip-rule="evenodd" d="M17.2977 8.33886C17.0499 7.24069 15.9316 6.45376 14.7332 6.88279C13.9676 7.15691 13.7753 7.5302 13.7301 7.71763C13.6747 7.94716 13.7664 8.13642 13.8489 8.20816C14.2089 8.52111 14.2548 9.07592 13.9515 9.44737C13.6483 9.81882 13.1105 9.86625 12.7505 9.5533C12.6717 9.48473 12.5981 9.4096 12.5303 9.32883C12.4625 9.4096 12.3889 9.48473 12.3101 9.5533C11.9501 9.86625 11.4124 9.81882 11.1091 9.44737C10.8058 9.07592 10.8517 8.52111 11.2117 8.20816C11.2943 8.13642 11.3859 7.94716 11.3306 7.71763C11.2853 7.5302 11.093 7.15691 10.3274 6.88279C9.12901 6.45376 8.01073 7.24069 7.76289 8.33886C7.58378 9.13252 7.83194 9.92484 8.41297 10.7017C8.9982 11.4842 9.86472 12.1656 10.7119 12.6512C11.1234 12.8871 11.2717 13.4225 11.0431 13.8471C10.8145 14.2717 10.2956 14.4247 9.88408 14.1888C8.90481 13.6274 7.83238 12.8044 7.06343 11.7763C6.29029 10.7426 5.76907 9.41806 6.10265 7.93996C6.55298 5.9445 8.62213 4.41051 10.8862 5.22108C11.6103 5.48033 12.1637 5.87017 12.5303 6.34807C12.8969 5.87017 13.4503 5.48033 14.1744 5.22108C16.4385 4.41051 18.5076 5.9445 18.958 7.93996C19.4889 10.2925 18.3436 12.0243 17.0469 13.1853C16.0396 14.0871 14.8099 14.7557 14.0429 15.1728C13.8495 15.2779 13.6856 15.3671 13.562 15.4399C12.7438 15.9223 12.1949 16.2912 11.8391 16.6911C11.524 17.0453 11.3533 17.4324 11.3533 18.0266C11.3533 18.6974 11.8802 19.2411 12.5303 19.2411C13.1804 19.2411 13.7073 18.6974 13.7073 18.0266C13.7073 17.8982 13.6883 17.776 13.6536 17.662C13.6278 17.5771 13.593 17.4961 13.5504 17.42C13.3147 16.9996 13.4539 16.4616 13.8614 16.2184C14.2689 15.9752 14.7902 16.1189 15.026 16.5393C15.1305 16.7258 15.2161 16.9253 15.2799 17.1349C15.3659 17.4175 15.412 17.7174 15.412 18.0266C15.412 19.6688 14.1218 21 12.5303 21C10.9388 21 9.64861 19.6688 9.64861 18.0266C9.64861 16.9833 9.98522 16.1739 10.5833 15.5016C11.1408 14.8751 11.911 14.3876 12.7162 13.9128C12.9039 13.8021 13.1189 13.6847 13.3523 13.5572C14.1222 13.1368 15.0911 12.6076 15.9297 11.8568C16.987 10.9102 17.6257 9.79226 17.2977 8.33886Z" fill="white"/>
<defs>
<radialGradient id="paint0_radial_199_8387" cx="0" cy="0" r="1" gradientUnits="userSpaceOnUse" gradientTransform="translate(13 1) rotate(90) scale(24)">
<stop stop-color="#C184FF"/>
<stop offset="1" stop-color="#7557EF"/>
</radialGradient>
<linearGradient id="paint1_linear_199_8387" x1="1.00003" y1="-1.81272" x2="27.0475" y2="1.16485" gradientUnits="userSpaceOnUse">
<stop stop-color="#CF91FF"/>
<stop offset="0.609375" stop-color="#35FAEE"/>
<stop offset="0.96875" stop-color="#FFE999"/>
</linearGradient>
</defs>
</svg>
