<svg width="46" height="54" viewBox="0 0 46 54" fill="none" xmlns="http://www.w3.org/2000/svg">
<path d="M45.9999 2.33332C45.9997 2.02178 45.9267 1.71459 45.7868 1.43625C45.6468 1.15791 45.4438 0.916113 45.1938 0.730139C44.9439 0.544166 44.6539 0.419157 44.3471 0.365078C44.0403 0.310999 43.7251 0.329346 43.4266 0.418657L16.7599 8.41866C16.3479 8.54196 15.9865 8.79482 15.7295 9.13973C15.4725 9.48463 15.3336 9.9032 15.3333 10.3333V36.672C13.6034 35.4676 11.5167 34.8842 9.41304 35.0168C7.30934 35.1495 5.31249 35.9903 3.74757 37.4025C2.18265 38.8146 1.14183 40.7149 0.79455 42.794C0.447269 44.873 0.813983 47.0084 1.83499 48.8525C2.856 50.6966 4.47117 52.1408 6.41755 52.95C8.36393 53.7591 10.5269 53.8856 12.5543 53.3088C14.5817 52.732 16.3542 51.4859 17.5832 49.7733C18.8121 48.0608 19.4252 45.9827 19.3226 43.8773C19.3298 43.8073 19.3334 43.737 19.3333 43.6667V22.488L41.9999 15.688V31.3413C40.2701 30.1369 38.1834 29.5535 36.0797 29.6862C33.976 29.8188 31.9792 30.6597 30.4142 32.0718C28.8493 33.484 27.8085 35.3842 27.4612 37.4633C27.1139 39.5424 27.4807 41.6778 28.5017 43.5219C29.5227 45.366 31.1378 46.8101 33.0842 47.6193C35.0306 48.4284 37.1936 48.5549 39.221 47.9781C41.2484 47.4013 43.0209 46.1552 44.2498 44.4427C45.4788 42.7301 46.0919 40.652 45.9893 38.5467C45.9966 38.4758 46.0001 38.4046 45.9999 38.3333V2.33332Z" fill="#E5E1F1"/>
</svg>
