<svg width="25" height="24" viewBox="0 0 25 24" fill="none" xmlns="http://www.w3.org/2000/svg">
<path d="M12.3717 21.765C11.1817 21.765 10.3877 21.203 9.67873 20.708C9.17473 20.351 8.70273 20.012 8.14573 19.918C7.88054 19.8724 7.61182 19.8503 7.34273 19.852C6.87073 19.852 6.49573 19.923 6.22873 19.977C6.05873 20.007 5.91673 20.035 5.80473 20.035C5.68873 20.035 5.54173 20.003 5.48474 19.807C5.43474 19.647 5.40373 19.495 5.37274 19.348C5.29274 18.978 5.22573 18.751 5.08673 18.728C3.59773 18.501 2.70673 18.158 2.53273 17.752C2.51873 17.708 2.50173 17.662 2.50173 17.627C2.49173 17.503 2.58173 17.4 2.70673 17.377C3.88773 17.182 4.94873 16.553 5.84473 15.519C6.54073 14.716 6.87973 13.94 6.91073 13.856C6.91073 13.846 6.91973 13.846 6.91973 13.846C7.08974 13.495 7.12473 13.196 7.02173 12.951C6.82973 12.491 6.19673 12.295 5.76473 12.161C5.65373 12.131 5.55973 12.095 5.47973 12.068C5.10974 11.921 4.49373 11.608 4.57473 11.176C4.63273 10.864 5.04674 10.641 5.38574 10.641C5.47974 10.641 5.55973 10.655 5.62573 10.691C6.00573 10.864 6.34874 10.953 6.64274 10.953C7.00874 10.953 7.18273 10.815 7.22674 10.771C7.21743 10.5732 7.20576 10.3755 7.19173 10.178C7.10173 8.813 6.99973 7.119 7.43174 6.148C8.72973 3.241 11.4847 3.008 12.3007 3.008L12.6567 3H12.7067C13.5217 3 16.2767 3.227 17.5747 6.139C18.0117 7.11 17.9047 8.809 17.8147 10.169L17.8057 10.236C17.7977 10.418 17.7837 10.592 17.7757 10.771C17.8197 10.806 17.9797 10.94 18.3097 10.944C18.5957 10.936 18.9077 10.842 19.2637 10.681C19.3623 10.6384 19.4684 10.616 19.5757 10.615C19.7007 10.615 19.8257 10.645 19.9327 10.681H19.9417C20.2407 10.793 20.4367 11.002 20.4367 11.221C20.4457 11.426 20.2847 11.738 19.5227 12.046C19.4427 12.076 19.3487 12.113 19.2377 12.139C18.8137 12.269 18.1807 12.474 17.9797 12.929C17.8687 13.169 17.9127 13.477 18.0827 13.825C18.0827 13.833 18.0917 13.833 18.0917 13.833C18.1407 13.958 19.4287 16.883 22.2957 17.36C22.3543 17.3699 22.4074 17.4006 22.4451 17.4466C22.4828 17.4926 22.5025 17.5506 22.5007 17.61C22.5014 17.6549 22.4908 17.6993 22.4697 17.739C22.2957 18.149 21.4127 18.483 19.9147 18.715C19.7767 18.737 19.7097 18.965 19.6297 19.335C19.598 19.4892 19.561 19.6423 19.5187 19.794C19.4737 19.941 19.3797 20.021 19.2187 20.021H19.1977C19.0552 20.0182 18.9132 20.0018 18.7737 19.972C18.4072 19.8939 18.0335 19.855 17.6587 19.856C17.39 19.8566 17.1218 19.879 16.8567 19.923C16.3037 20.013 15.8267 20.356 15.3227 20.713C14.6047 21.203 13.8067 21.765 12.6257 21.765H12.3717Z" fill="#C0B0FF"/>
</svg>
