<svg width="64" height="64" viewBox="0 0 64 64" fill="none" xmlns="http://www.w3.org/2000/svg">
<path d="M18.6668 5.33331H16.0002C8.00016 5.33331 5.3335 10.1066 5.3335 16V18.6666V56C5.3335 58.2133 7.84016 59.4666 9.60016 58.1333L14.1602 54.72C15.2268 53.92 16.7202 54.0266 17.6802 54.9866L22.1068 59.44C23.1468 60.48 24.8535 60.48 25.8935 59.44L30.3735 54.96C31.3068 54.0266 32.8002 53.92 33.8402 54.72L38.4002 58.1333C40.1602 59.44 42.6668 58.1866 42.6668 56V10.6666C42.6668 7.73331 45.0668 5.33331 48.0002 5.33331H18.6668ZM30.0002 36.6666H18.0002C16.9068 36.6666 16.0002 35.76 16.0002 34.6666C16.0002 33.5733 16.9068 32.6666 18.0002 32.6666H30.0002C31.0935 32.6666 32.0002 33.5733 32.0002 34.6666C32.0002 35.76 31.0935 36.6666 30.0002 36.6666ZM32.0002 26H16.0002C14.9068 26 14.0002 25.0933 14.0002 24C14.0002 22.9066 14.9068 22 16.0002 22H32.0002C33.0935 22 34.0002 22.9066 34.0002 24C34.0002 25.0933 33.0935 26 32.0002 26Z" fill="#C0B0FF"/>
<path d="M48.0265 5.33331V9.33331C49.7865 9.33331 51.4665 10.0533 52.6932 11.2533C53.9732 12.56 54.6665 14.24 54.6665 16V22.4533C54.6665 24.4266 53.7865 25.3333 51.7865 25.3333H46.6665V10.6933C46.6665 9.94665 47.2798 9.33331 48.0265 9.33331V5.33331ZM48.0265 5.33331C45.0665 5.33331 42.6665 7.73331 42.6665 10.6933V29.3333H51.7865C55.9998 29.3333 58.6665 26.6666 58.6665 22.4533V16C58.6665 13.0666 57.4665 10.4 55.5465 8.45331C53.5998 6.53331 50.9598 5.35998 48.0265 5.33331C48.0532 5.33331 48.0265 5.33331 48.0265 5.33331Z" fill="#C0B0FF"/>
</svg>
