<svg width="25" height="24" viewBox="0 0 25 24" fill="none" xmlns="http://www.w3.org/2000/svg">
<path fill-rule="evenodd" clip-rule="evenodd" d="M21 2H5.53999C5.20999 2 4.89001 2.17001 4.71001 2.45001L3.17 4.75C3.06 4.91 3 5.10999 3 5.29999V18C3 18.55 3.45 19 4 19H6C6.55 19 7 19.45 7 20V21C7 21.55 7.45 22 8 22H9.46001C9.79001 22 10.11 21.83 10.29 21.55L11.7 19.44C11.89 19.16 12.2 18.99 12.53 18.99H16.58C16.85 18.99 17.1 18.88 17.29 18.7L21.7 14.29C21.89 14.1 21.99 13.85 21.99 13.58V3C22 2.45 21.55 2 21 2ZM11.29 12.86C11.29 13.18 11.03 13.43 10.72 13.43H9.58C9.26 13.43 9.00999 13.17 9.00999 12.86V7.14999C9.00999 6.82999 9.27 6.57999 9.58 6.57999H10.72C11.04 6.57999 11.29 6.83999 11.29 7.14999V12.86ZM17 12.86C17 13.18 16.74 13.43 16.43 13.43H15.29C14.97 13.43 14.72 13.17 14.72 12.86V7.14999C14.72 6.82999 14.98 6.57999 15.29 6.57999H16.43C16.75 6.57999 17 6.83999 17 7.14999V12.86Z" fill="#C0B0FF"/>
</svg>
