<svg width="20" height="20" viewBox="0 0 20 20" fill="none" xmlns="http://www.w3.org/2000/svg">
<path d="M18.1745 3.28333C17.0829 6.00833 14.5912 9.56666 12.2162 11.8917C11.8745 9.74166 10.1579 8.05833 7.99121 7.75833C10.3245 5.37499 13.9079 2.84999 16.6412 1.74999C17.1245 1.56666 17.6079 1.70833 17.9079 2.00833C18.2245 2.32499 18.3745 2.79999 18.1745 3.28333Z" fill="#C0B0FF"/>
<path d="M11.4829 12.575C11.3163 12.7166 11.1496 12.8583 10.9829 12.9916L9.49128 14.1833C9.49128 14.1583 9.48294 14.125 9.48294 14.0916C9.36628 13.2 8.94961 12.375 8.27461 11.7C7.59128 11.0166 6.74128 10.6 5.80794 10.4833C5.78294 10.4833 5.74961 10.475 5.72461 10.475L6.93294 8.94997C7.04961 8.79997 7.17461 8.6583 7.30794 8.5083L7.87461 8.5833C9.66628 8.8333 11.1079 10.2416 11.3913 12.025L11.4829 12.575Z" fill="#C0B0FF"/>
<path d="M8.6918 14.6833C8.6918 15.5999 8.3418 16.4749 7.67513 17.1333C7.1668 17.6499 6.48346 17.9999 5.65013 18.0999L3.60846 18.3249C2.4918 18.4499 1.53346 17.4916 1.65846 16.3666L1.88346 14.3166C2.08346 12.4916 3.60846 11.3249 5.22513 11.2916C5.38346 11.2833 5.55846 11.2916 5.72513 11.3083C6.43346 11.3999 7.1168 11.7249 7.6918 12.2916C8.25013 12.8499 8.5668 13.5083 8.65846 14.1999C8.67513 14.3666 8.6918 14.5249 8.6918 14.6833Z" fill="#C0B0FF"/>
</svg>
