<svg width="310" height="49" viewBox="0 0 310 49" fill="none" xmlns="http://www.w3.org/2000/svg">
<path d="M21.46 21.552C21.268 21.68 20.868 21.84 20.26 22.032C19.684 22.192 18.692 22.352 17.284 22.512C16.868 22.544 16.276 22.576 15.508 22.608C14.74 22.64 13.908 22.672 13.012 22.704C12.148 22.736 11.348 22.752 10.612 22.752C9.908 22.72 9.412 22.672 9.124 22.608C9.124 22.608 9.044 22.688 8.884 22.848C8.756 23.008 8.692 23.216 8.692 23.472C8.468 23.856 8.196 24.432 7.876 25.2C7.556 25.936 7.204 26.752 6.82 27.648C6.468 28.544 6.132 29.44 5.812 30.336C5.492 31.2 5.22 31.968 4.996 32.64C4.804 33.28 4.708 33.728 4.708 33.984C4.42 34.752 4.244 35.408 4.18 35.952C4.116 36.496 4.004 36.816 3.844 36.912C3.748 37.392 3.444 37.632 2.932 37.632C2.452 37.632 2.084 37.488 1.828 37.2C1.124 36.848 0.644 36.4 0.388 35.856C0.132 35.28 0.116 34.64 0.34 33.936C0.436 33.52 0.596 32.912 0.82 32.112C1.076 31.28 1.348 30.368 1.636 29.376C1.956 28.384 2.276 27.424 2.596 26.496C2.948 25.536 3.284 24.752 3.604 24.144C3.956 23.536 4.18 22.992 4.276 22.512C4.372 22 4.5 21.536 4.66 21.12C4.628 20.768 4.628 20.544 4.66 20.448C4.692 20.32 4.82 20.112 5.044 19.824C5.204 19.696 5.396 19.472 5.62 19.152C5.876 18.8 6.164 18.272 6.484 17.568C6.58 17.248 6.724 16.816 6.916 16.272C7.14 15.696 7.348 15.12 7.54 14.544C7.732 13.936 7.908 13.424 8.068 13.008C8.228 12.592 8.308 12.368 8.308 12.336C8.372 12.208 8.468 11.968 8.596 11.616C8.724 11.232 8.82 10.928 8.884 10.704C9.012 10.256 9.108 9.888 9.172 9.6C9.268 9.312 9.252 9.168 9.124 9.168C8.868 9.232 8.356 9.28 7.588 9.312C7.204 9.376 6.916 9.424 6.724 9.456C6.564 9.456 6.42 9.472 6.292 9.504C5.972 9.536 5.684 9.504 5.428 9.408C5.172 9.312 5.044 9.12 5.044 8.832C5.108 8.32 5.284 7.792 5.572 7.248C5.892 6.704 6.292 6.416 6.772 6.384C6.996 6.32 7.236 6.272 7.492 6.24C7.78 6.176 8.164 6.08 8.644 5.952C9.252 5.824 9.78 5.792 10.228 5.856C10.708 5.888 11.044 5.936 11.236 6C11.396 5.904 11.524 5.808 11.62 5.712C11.748 5.584 11.828 5.456 11.86 5.328C12.02 4.752 12.308 4.32 12.724 4.032C13.14 3.712 13.572 3.552 14.02 3.552C14.5 3.52 14.884 3.648 15.172 3.936C15.46 4.192 15.54 4.624 15.412 5.232C15.444 5.328 15.476 5.408 15.508 5.472C15.572 5.536 15.812 5.536 16.228 5.472C16.676 5.376 17.444 5.216 18.532 4.992C19.108 4.928 19.828 4.864 20.692 4.8C21.588 4.736 22.292 4.784 22.804 4.944C23.348 4.848 23.828 4.816 24.244 4.848C24.692 4.848 24.996 4.784 25.156 4.656C25.828 4.784 26.308 4.88 26.596 4.944C26.916 4.976 27.172 5.072 27.364 5.232C27.492 5.36 27.54 5.488 27.508 5.616C27.476 5.712 27.46 5.76 27.46 5.76C27.332 5.696 27.316 5.696 27.412 5.76C27.508 5.792 27.636 5.872 27.796 6C28.02 6.096 28.132 6.304 28.132 6.624C28.164 6.912 28.148 7.216 28.084 7.536C28.052 7.824 28.02 8.016 27.988 8.112C27.956 8.4 27.796 8.576 27.508 8.64C27.22 8.672 26.5 8.672 25.348 8.64C23.972 8.448 22.692 8.384 21.508 8.448C20.356 8.48 18.9 8.624 17.14 8.88C16.436 8.912 15.828 9.008 15.316 9.168C14.836 9.296 14.596 9.36 14.596 9.36C14.468 9.36 14.244 9.584 13.924 10.032C13.604 10.448 13.3 11.072 13.012 11.904C12.884 12.128 12.66 12.592 12.34 13.296C12.052 14 11.748 14.768 11.428 15.6C11.108 16.4 10.82 17.12 10.564 17.76C10.308 18.368 10.148 18.704 10.084 18.768C10.532 18.896 11.22 18.96 12.148 18.96C13.108 18.96 14.164 18.928 15.316 18.864C16.468 18.768 17.556 18.672 18.58 18.576C19.06 18.48 19.556 18.4 20.068 18.336C20.58 18.272 20.932 18.256 21.124 18.288C21.508 18.32 21.796 18.576 21.988 19.056C22.18 19.504 22.244 19.984 22.18 20.496C22.116 20.976 21.876 21.328 21.46 21.552ZM25.0626 34.704C24.7746 34.48 24.4546 34.192 24.1026 33.84C23.7826 33.488 23.6706 32.992 23.7666 32.352C23.8626 31.456 23.9906 30.672 24.1506 30C24.3106 29.296 24.5026 28.496 24.7266 27.6C24.7906 27.216 24.9506 26.56 25.2066 25.632C25.4946 24.704 25.8306 23.696 26.2146 22.608C26.5986 21.52 26.9986 20.496 27.4146 19.536C27.8306 18.544 28.1986 17.808 28.5186 17.328C28.8706 17.008 29.3826 16.848 30.0546 16.848C30.7586 16.848 31.2386 16.976 31.4946 17.232C31.8466 17.52 31.9586 18.032 31.8306 18.768C31.7026 19.472 31.2546 20.576 30.4866 22.08C30.3266 22.464 30.1186 22.88 29.8626 23.328C29.6386 23.744 29.4786 24.096 29.3826 24.384C29.2866 24.64 29.3186 24.752 29.4786 24.72C29.6706 24.368 30.0226 23.968 30.5346 23.52C31.0466 23.04 31.5906 22.576 32.1666 22.128C32.7426 21.68 33.2866 21.28 33.7986 20.928C34.3106 20.576 34.6626 20.352 34.8546 20.256C35.1106 20.096 35.3986 19.968 35.7186 19.872C36.0706 19.744 36.3106 19.648 36.4386 19.584C37.1746 19.232 37.9746 19.104 38.8386 19.2C39.7346 19.264 40.2786 19.536 40.4706 20.016C40.5026 20.272 40.5986 20.464 40.7586 20.592C40.9506 20.72 41.0466 20.784 41.0466 20.784C41.1746 20.784 41.2386 20.832 41.2386 20.928C41.2706 21.024 41.2866 21.072 41.2866 21.072C41.2866 21.296 41.0626 21.616 40.6146 22.032C40.1986 22.448 39.7346 22.672 39.2226 22.704C38.8066 22.736 38.4386 22.816 38.1186 22.944C37.7986 23.072 37.4146 23.232 36.9666 23.424C35.7506 24.128 34.6466 24.752 33.6546 25.296C32.6946 25.84 31.7026 26.672 30.6786 27.792C30.4546 28.048 30.2146 28.288 29.9586 28.512C29.7026 28.736 29.4466 29.056 29.1906 29.472C29.0306 29.632 28.8706 29.984 28.7106 30.528C28.5506 31.072 28.4066 31.6 28.2786 32.112C28.1826 32.592 28.1346 32.88 28.1346 32.976C28.1346 32.976 28.0866 33.136 27.9906 33.456C27.8946 33.744 27.7346 34.032 27.5106 34.32C27.1266 34.832 26.7426 35.152 26.3586 35.28C26.0066 35.408 25.5746 35.216 25.0626 34.704ZM51.6715 35.04C50.7115 35.584 49.6875 35.904 48.5995 36C47.5435 36.064 46.5515 35.92 45.6235 35.568C44.6955 35.184 43.9435 34.624 43.3675 33.888C43.0475 33.472 42.7435 32.816 42.4555 31.92C42.1675 30.992 42.1195 29.744 42.3115 28.176C42.5035 26.704 42.9515 25.216 43.6555 23.712C44.3915 22.208 45.2875 20.88 46.3435 19.728C47.3995 18.576 48.5515 17.792 49.7995 17.376C50.2475 17.216 50.6955 17.104 51.1435 17.04C51.6235 16.944 52.2475 16.928 53.0155 16.992C53.7515 17.088 54.4075 17.28 54.9835 17.568C55.5595 17.824 55.9755 18.112 56.2315 18.432C56.7435 18.944 57.0795 19.44 57.2395 19.92C57.3995 20.4 57.4635 20.864 57.4315 21.312C57.2715 22.336 56.8075 23.44 56.0395 24.624C55.3035 25.808 54.2635 26.688 52.9195 27.264C52.3755 27.488 51.7355 27.632 50.9995 27.696C50.2635 27.76 49.2555 27.664 47.9755 27.408C47.2075 27.248 46.6955 27.328 46.4395 27.648C46.2155 27.968 46.1195 28.592 46.1515 29.52C46.2155 30.096 46.3435 30.608 46.5355 31.056C46.7595 31.472 47.1595 31.76 47.7355 31.92C48.4715 32.048 48.9995 32.064 49.3195 31.968C49.6395 31.84 50.0395 31.664 50.5195 31.44C50.7755 31.28 51.0155 31.104 51.2395 30.912C51.4955 30.72 51.7355 30.528 51.9595 30.336C52.2155 30.144 52.4235 30 52.5835 29.904C52.7435 29.776 52.9035 29.696 53.0635 29.664C53.2235 29.632 53.3835 29.616 53.5435 29.616C53.8955 29.648 54.2315 29.84 54.5515 30.192C54.8715 30.544 55.0795 30.88 55.1755 31.2C55.1755 31.456 55.0155 31.824 54.6955 32.304C54.3755 32.752 53.9435 33.232 53.3995 33.744C52.8875 34.224 52.3115 34.656 51.6715 35.04ZM51.0475 24.336C51.2715 24.24 51.5915 24.016 52.0075 23.664C52.4555 23.312 52.8555 22.944 53.2075 22.56C53.5595 22.144 53.7355 21.824 53.7355 21.6C53.7355 21.248 53.4955 20.944 53.0155 20.688C52.5675 20.432 51.9755 20.384 51.2395 20.544C50.9835 20.608 50.6795 20.784 50.3275 21.072C49.9755 21.36 49.6235 21.696 49.2715 22.08C48.9195 22.432 48.6155 22.784 48.3595 23.136C48.1035 23.456 47.9275 23.712 47.8315 23.904C47.9595 24.064 48.2155 24.192 48.5995 24.288C48.9835 24.384 49.3995 24.432 49.8475 24.432C50.3275 24.432 50.7275 24.4 51.0475 24.336ZM64.9188 46.848C64.5028 46.72 64.1188 46.496 63.7668 46.176C63.4148 45.888 63.2228 45.456 63.1908 44.88C63.1908 44.528 63.2548 44.064 63.3828 43.488C63.5108 42.912 63.6548 42.24 63.8148 41.472C63.8148 41.344 63.8788 40.976 64.0068 40.368C64.1668 39.792 64.3268 39.312 64.4868 38.928C64.7108 38.096 64.9508 37.264 65.2068 36.432C65.4948 35.6 65.7988 34.752 66.1188 33.888C66.5988 32.544 67.0468 31.408 67.4628 30.48C67.9108 29.52 68.2948 28.832 68.6148 28.416L75.3348 19.92C75.7828 19.92 76.0388 19.984 76.1028 20.112C76.1668 20.24 76.1988 20.528 76.1988 20.976C76.1988 21.456 76.1828 21.808 76.1508 22.032C76.1508 22.224 76.0228 22.448 75.7668 22.704H75.8148C75.8788 22.64 75.8628 22.72 75.7668 22.944C75.6708 23.136 75.5908 23.28 75.5268 23.376C75.4628 23.536 75.3828 23.712 75.2868 23.904C75.2228 24.096 75.1428 24.24 75.0468 24.336C74.9508 24.432 74.7268 24.816 74.3748 25.488C74.0228 26.16 73.6228 26.944 73.1748 27.84C72.7268 28.704 72.2948 29.552 71.8788 30.384C71.4948 31.184 71.2068 31.808 71.0148 32.256C70.9188 32.48 70.8068 32.752 70.6788 33.072C70.5828 33.36 70.4388 33.792 70.2468 34.368C70.0548 34.944 69.7508 35.776 69.3348 36.864L69.0948 37.776L68.6628 38.736C68.4388 39.344 68.2788 39.744 68.1828 39.936C68.1188 40.128 68.0868 40.288 68.0868 40.416C67.9588 41.088 67.7988 41.872 67.6068 42.768C67.4468 43.664 67.3348 44.512 67.2708 45.312C67.2708 45.664 67.0148 46.048 66.5028 46.464C65.9908 46.88 65.4628 47.008 64.9188 46.848ZM63.2868 28.704C63.3508 29.408 63.8148 29.584 64.6788 29.232C65.5428 28.88 66.6788 28.016 68.0868 26.64C68.7588 26.032 69.3188 25.456 69.7668 24.912C70.2148 24.336 70.7108 23.744 71.2548 23.136C71.4148 22.784 71.5588 22.496 71.6868 22.272C71.8468 22.016 71.9428 21.776 71.9748 21.552C72.1028 21.008 72.0868 20.656 71.9268 20.496C71.7988 20.336 71.6548 20.256 71.4948 20.256C71.2708 20.256 70.8868 20.368 70.3428 20.592C69.7988 20.784 69.3028 21.056 68.8548 21.408C67.4468 22.144 66.3268 22.96 65.4948 23.856C64.6628 24.72 64.0708 25.584 63.7188 26.448C63.3668 27.28 63.2228 28.032 63.2868 28.704ZM63.3828 33.072C62.9988 33.072 62.5188 32.96 61.9428 32.736C61.3668 32.512 60.8388 32.224 60.3588 31.872C59.8788 31.52 59.5428 31.168 59.3508 30.816C59.1268 30.272 59.0308 29.584 59.0628 28.752C59.1268 27.888 59.3028 27.024 59.5908 26.16C59.9108 25.264 60.3428 24.48 60.8868 23.808C61.2388 23.168 61.6548 22.592 62.1348 22.08C62.6148 21.568 63.0148 21.2 63.3348 20.976C63.5908 20.72 63.8628 20.448 64.1508 20.16C64.4708 19.872 64.7268 19.664 64.9188 19.536C65.2708 19.28 65.5748 19.088 65.8308 18.96C66.0868 18.8 66.4068 18.656 66.7908 18.528C67.4308 18.08 68.3588 17.76 69.5748 17.568C70.8228 17.344 71.9748 17.168 73.0308 17.04C73.4468 16.944 73.9588 16.96 74.5668 17.088C75.1748 17.184 75.7508 17.344 76.2948 17.568C76.8388 17.76 77.2228 17.968 77.4468 18.192C77.6068 18.448 77.7028 18.768 77.7348 19.152C77.7988 19.536 77.7188 19.728 77.4948 19.728C77.3668 19.728 77.1588 19.84 76.8708 20.064C76.5828 20.256 76.4068 20.704 76.3428 21.408C76.2148 22.304 75.5588 23.248 74.3748 24.24C73.2228 25.232 71.8468 26.48 70.2468 27.984C69.4468 28.848 68.6148 29.664 67.7508 30.432C66.8868 31.2 66.0708 31.824 65.3028 32.304C64.5668 32.784 63.9268 33.04 63.3828 33.072ZM90.1165 36.288C89.8925 36.416 89.5885 36.368 89.2045 36.144C88.8525 35.92 88.5005 35.584 88.1485 35.136C87.9245 34.752 87.7485 34.368 87.6205 33.984C87.5245 33.568 87.4765 32.96 87.4765 32.16C87.5085 31.52 87.5085 31.088 87.4765 30.864C87.4765 30.608 87.3325 30.592 87.0445 30.816C86.7885 31.008 86.2605 31.488 85.4605 32.256C84.6605 33.056 83.8925 33.744 83.1565 34.32C82.4525 34.864 81.8765 35.12 81.4285 35.088C81.2045 35.088 80.9005 34.944 80.5165 34.656C80.1325 34.368 79.7645 34.016 79.4125 33.6C79.0605 33.152 78.8045 32.736 78.6445 32.352C78.4525 31.584 78.4365 30.592 78.5965 29.376C78.7885 28.16 79.0925 26.896 79.5085 25.584C79.9245 24.24 80.3885 22.992 80.9005 21.84C81.4445 20.656 81.9725 19.712 82.4845 19.008C83.0285 18.272 83.4925 17.92 83.8765 17.952C84.4205 18.016 84.8845 18.288 85.2685 18.768C85.6845 19.216 86.0045 19.712 86.2285 20.256C86.3565 20.48 86.4045 20.672 86.3725 20.832C86.3725 20.992 86.2445 21.184 85.9885 21.408C85.7005 21.792 85.3485 22.352 84.9325 23.088C84.5485 23.792 84.1485 24.56 83.7325 25.392C83.3485 26.224 82.9965 27.024 82.6765 27.792C82.3885 28.528 82.1805 29.136 82.0525 29.616C81.9245 30.096 81.9245 30.336 82.0525 30.336C82.5005 30.336 82.9165 30.224 83.3005 30C83.6845 29.744 84.1645 29.344 84.7405 28.8C85.4125 28.128 86.0045 27.456 86.5165 26.784C87.0285 26.08 87.5565 25.28 88.1005 24.384C88.5165 23.744 88.9485 23.04 89.3965 22.272C89.8765 21.504 90.1805 20.96 90.3085 20.64C90.7565 19.808 91.0925 19.184 91.3165 18.768C91.5405 18.352 91.8125 18.096 92.1325 18C92.2925 18 92.5165 18 92.8045 18C93.0925 18 93.2365 18 93.2365 18C93.4285 18.032 93.6525 18.176 93.9085 18.432C94.1645 18.56 94.4205 18.736 94.6765 18.96C94.9645 19.184 95.1085 19.376 95.1085 19.536C94.9805 19.856 94.7725 20.336 94.4845 20.976C94.2285 21.584 94.0365 22.032 93.9085 22.32C93.3005 23.696 92.7085 25.056 92.1325 26.4C91.5885 27.712 91.1885 29.056 90.9325 30.432C90.8685 30.88 90.8525 31.408 90.8845 32.016C90.9485 32.592 91.0445 33.008 91.1725 33.264C91.2685 33.456 91.3805 33.68 91.5085 33.936C91.6685 34.16 91.8445 34.352 92.0365 34.512C92.3245 34.704 92.3085 34.944 91.9885 35.232C91.7005 35.52 91.3325 35.776 90.8845 36C90.4685 36.192 90.2125 36.288 90.1165 36.288ZM100.394 35.568C99.1461 35.056 98.2821 34.224 97.8021 33.072C97.3221 31.92 97.1941 30.384 97.4181 28.464C97.4821 27.472 97.4501 26.816 97.3221 26.496C97.1941 26.144 96.9541 25.808 96.6021 25.488C96.5061 25.36 96.2821 25.152 95.9301 24.864C95.5781 24.544 95.4181 24.304 95.4501 24.144C95.4181 23.92 95.4661 23.648 95.5941 23.328C95.7221 22.976 95.8341 22.784 95.9301 22.752C96.1541 22.656 96.3781 22.544 96.6021 22.416C96.8581 22.288 97.0501 22.256 97.1781 22.32C97.3061 22.32 97.4981 22.4 97.7541 22.56C98.0421 22.72 98.1861 22.864 98.1861 22.992C98.3141 23.216 98.5061 23.12 98.7621 22.704C99.0501 22.288 99.3541 21.76 99.6741 21.12C99.9941 20.608 100.394 20.128 100.874 19.68C101.354 19.232 101.834 18.832 102.314 18.48C102.826 18.096 103.258 17.808 103.61 17.616C103.77 17.552 104.074 17.456 104.522 17.328C105.002 17.2 105.498 17.104 106.01 17.04C106.522 16.944 106.906 16.912 107.162 16.944C107.738 16.976 108.346 17.216 108.986 17.664C109.626 18.112 110.122 18.528 110.474 18.912C110.89 19.2 111.162 19.648 111.29 20.256C111.45 20.832 111.514 21.44 111.482 22.08C111.45 22.72 111.322 23.264 111.098 23.712C111.002 24.032 110.666 24.48 110.09 25.056C109.514 25.632 108.874 26.192 108.17 26.736C107.498 27.248 106.922 27.6 106.442 27.792C106.026 27.888 105.53 27.968 104.954 28.032C104.378 28.064 103.834 28.064 103.322 28.032C102.842 27.968 102.506 27.888 102.314 27.792C102.09 27.664 101.898 27.712 101.738 27.936C101.61 28.128 101.498 28.672 101.402 29.568C101.37 29.92 101.37 30.224 101.402 30.48C101.466 30.736 101.53 30.928 101.594 31.056C101.818 31.44 102.042 31.728 102.266 31.92C102.49 32.08 102.906 32.128 103.514 32.064C104.122 32 104.73 31.632 105.338 30.96C105.978 30.256 106.554 29.696 107.066 29.28C107.194 29.056 107.466 28.912 107.882 28.848C108.33 28.752 108.858 28.784 109.466 28.944C109.818 29.168 109.978 29.52 109.946 30C109.946 30.48 109.69 31.184 109.178 32.112C109.082 32.336 108.81 32.672 108.362 33.12C107.946 33.536 107.482 33.968 106.97 34.416C106.49 34.832 106.09 35.136 105.77 35.328C104.81 35.84 103.866 36.08 102.938 36.048C102.01 36.016 101.162 35.856 100.394 35.568ZM103.946 24.768C104.426 24.64 104.826 24.512 105.146 24.384C105.498 24.256 105.834 24.048 106.154 23.76C106.474 23.472 106.842 23.04 107.258 22.464C107.386 22.112 107.45 21.808 107.45 21.552C107.482 21.296 107.466 21.136 107.402 21.072C107.146 20.816 106.858 20.736 106.538 20.832C106.25 20.896 105.93 21.056 105.578 21.312C105.354 21.408 105.034 21.616 104.618 21.936C104.234 22.224 103.85 22.56 103.466 22.944C103.114 23.296 102.826 23.632 102.602 23.952C102.41 24.24 102.378 24.416 102.506 24.48C102.442 24.608 102.618 24.688 103.034 24.72C103.482 24.752 103.786 24.768 103.946 24.768ZM116.665 34.368C116.537 34.368 116.233 34.256 115.753 34.032C115.273 33.776 114.969 33.584 114.841 33.456C114.617 33.2 114.473 32.928 114.409 32.64C114.345 32.32 114.313 31.712 114.313 30.816C114.313 29.792 114.521 28.64 114.937 27.36C115.353 26.048 116.057 24.304 117.049 22.128L119.017 18.144C119.177 17.92 119.321 17.728 119.449 17.568C119.577 17.376 119.721 17.2 119.881 17.04C119.945 17.04 120.025 17.04 120.121 17.04C120.249 17.04 120.345 17.056 120.409 17.088C120.697 17.12 121.145 17.296 121.753 17.616C122.393 17.936 122.777 18.416 122.905 19.056C122.905 19.472 122.841 19.968 122.713 20.544C122.585 21.088 122.201 21.808 121.561 22.704C121.305 23.024 121.049 23.488 120.793 24.096C120.569 24.704 120.361 25.28 120.169 25.824C120.137 25.888 120.041 26.048 119.881 26.304C119.753 26.528 119.625 26.768 119.497 27.024C119.369 27.248 119.305 27.392 119.305 27.456L119.113 27.888L121.177 25.872C122.617 24.432 123.833 23.408 124.825 22.8C125.817 22.192 126.649 21.936 127.321 22.032C128.025 22.128 128.585 22.528 129.001 23.232C129.225 23.552 129.385 23.904 129.481 24.288C129.577 24.64 129.641 25.056 129.673 25.536C129.705 26.016 129.689 26.624 129.625 27.36V30.096C130.233 29.936 130.697 29.808 131.017 29.712C131.337 29.584 131.657 29.472 131.977 29.376C132.233 29.312 132.489 29.248 132.745 29.184C133.033 29.12 133.385 29.072 133.801 29.04C133.769 29.456 133.593 29.968 133.273 30.576C132.953 31.184 132.553 31.792 132.073 32.4C131.625 33.008 131.129 33.52 130.585 33.936C130.073 34.352 129.593 34.56 129.145 34.56C128.729 34.56 128.249 34.432 127.705 34.176C127.161 33.888 126.697 33.344 126.313 32.544C126.185 32.128 126.057 31.648 125.929 31.104C125.801 30.56 125.737 29.984 125.737 29.376V27.264C125.737 27.072 125.721 26.944 125.689 26.88C125.689 26.784 125.673 26.736 125.641 26.736C125.513 26.736 125.097 27.072 124.393 27.744C123.721 28.416 123.033 29.12 122.329 29.856C120.857 31.392 119.625 32.528 118.633 33.264C117.673 34 117.017 34.368 116.665 34.368ZM142.969 36.192C142.041 36.352 141.113 36.272 140.185 35.952C139.289 35.632 138.537 35.12 137.929 34.416C137.353 33.68 137.065 32.8 137.065 31.776C136.969 30.816 137.049 29.68 137.305 28.368C137.593 27.024 138.009 25.68 138.553 24.336C139.129 22.992 139.785 21.856 140.521 20.928C141.161 20.16 141.801 19.456 142.441 18.816C143.081 18.176 143.657 17.744 144.169 17.52C144.617 17.328 145.161 17.184 145.801 17.088C146.473 16.96 146.937 16.896 147.193 16.896C147.705 17.024 148.265 17.232 148.873 17.52C149.513 17.808 149.833 18.144 149.833 18.528C149.833 18.528 149.865 18.576 149.929 18.672C150.025 18.736 150.073 18.768 150.073 18.768C150.265 18.768 150.473 19.008 150.697 19.488C150.953 19.936 151.145 20.464 151.273 21.072C151.401 21.648 151.369 22.112 151.177 22.464C151.049 23.072 150.793 23.664 150.409 24.24C150.057 24.816 149.753 25.104 149.497 25.104C149.369 25.104 149.241 25.12 149.113 25.152C149.017 25.152 148.969 25.232 148.969 25.392C148.969 25.552 148.793 25.632 148.441 25.632C148.121 25.632 147.785 25.568 147.433 25.44C147.081 25.312 146.857 25.12 146.761 24.864C146.761 24.704 146.793 24.496 146.857 24.24C146.921 23.984 147.017 23.552 147.145 22.944C147.337 22.048 147.353 21.456 147.193 21.168C147.033 20.848 146.633 20.816 145.993 21.072C145.193 21.52 144.537 22.048 144.025 22.656C143.513 23.232 143.049 24.048 142.633 25.104C142.249 26.16 141.817 27.632 141.337 29.52C141.145 30.256 141.113 30.832 141.241 31.248C141.401 31.664 141.529 31.888 141.625 31.92C142.073 32.048 142.553 32.08 143.065 32.016C143.609 31.92 144.057 31.776 144.409 31.584C144.921 31.328 145.369 31.056 145.753 30.768C146.169 30.448 146.617 30.112 147.097 29.76C147.257 29.664 147.401 29.488 147.529 29.232C147.657 28.944 147.849 28.736 148.105 28.608C148.361 28.224 148.681 28.032 149.065 28.032C149.481 28 149.881 27.984 150.265 27.984C150.521 28.048 150.793 28.208 151.081 28.464C151.369 28.72 151.577 28.976 151.705 29.232C151.865 29.456 151.849 29.616 151.657 29.712C151.529 29.712 151.449 29.76 151.417 29.856C151.417 29.92 151.417 29.952 151.417 29.952C151.481 30.08 151.337 30.368 150.985 30.816C150.665 31.264 150.249 31.744 149.737 32.256C149.225 32.768 148.729 33.216 148.249 33.6C147.801 33.952 147.481 34.128 147.289 34.128C146.969 34.128 146.809 34.224 146.809 34.416C146.809 34.48 146.569 34.64 146.089 34.896C145.641 35.152 145.113 35.408 144.505 35.664C143.929 35.92 143.417 36.096 142.969 36.192ZM154.069 48.336C153.365 48.464 152.885 48.48 152.629 48.384C152.373 48.288 152.021 48.128 151.573 47.904C151.221 47.648 150.965 47.456 150.805 47.328C150.645 47.2 150.533 47.072 150.469 46.944C150.149 46.272 150.101 45.776 150.325 45.456C150.549 45.136 150.869 44.928 151.285 44.832C151.733 44.768 152.117 44.736 152.437 44.736C152.661 44.864 153.029 44.928 153.541 44.928C154.085 44.928 154.421 44.864 154.549 44.736C154.549 44.736 154.693 44.64 154.981 44.448C155.301 44.288 155.717 44.16 156.229 44.064C157.221 43.584 158.005 43.088 158.581 42.576C159.157 42.096 159.797 41.264 160.501 40.08C160.789 39.632 161.093 39.104 161.413 38.496C161.733 37.92 161.957 37.344 162.085 36.768C162.341 36.128 162.629 35.264 162.949 34.176C163.301 33.088 163.605 32.016 163.861 30.96C164.117 29.872 164.261 29.056 164.293 28.512C164.485 26.72 164.853 24.992 165.397 23.328C165.941 21.632 166.373 19.84 166.693 17.952C166.885 17.504 167.029 17.248 167.125 17.184C167.221 17.088 167.429 17.04 167.749 17.04C168.101 17.04 168.517 17.152 168.997 17.376C169.477 17.568 169.829 17.84 170.053 18.192C170.373 18.8 170.517 19.52 170.485 20.352C170.485 21.152 170.277 21.856 169.861 22.464C169.541 22.912 169.253 23.616 168.997 24.576C168.773 25.504 168.549 26.672 168.325 28.08C168.165 28.784 167.989 29.616 167.797 30.576C167.637 31.504 167.461 32.544 167.269 33.696C167.141 34.016 166.965 34.512 166.741 35.184C166.517 35.824 166.373 36.336 166.309 36.72C166.277 36.848 166.181 37.104 166.021 37.488C165.861 37.872 165.701 38.24 165.541 38.592C165.381 38.976 165.269 39.232 165.205 39.36C163.669 42.464 161.893 44.704 159.877 46.08C157.893 47.456 155.957 48.208 154.069 48.336ZM158.101 34.752C157.749 34.752 157.381 34.56 156.997 34.176C156.645 33.792 156.405 33.488 156.277 33.264C156.149 32.944 155.909 32.64 155.557 32.352C155.205 32.064 154.901 31.712 154.645 31.296C154.389 30.88 154.325 30.368 154.453 29.76C154.581 29.344 154.773 28.72 155.029 27.888C155.285 27.024 155.589 26.08 155.941 25.056C156.293 24 156.645 22.96 156.997 21.936C157.381 20.912 157.733 20 158.053 19.2C158.373 18.4 158.645 17.84 158.869 17.52C159.061 17.264 159.365 17.072 159.781 16.944C160.197 16.816 160.613 16.784 161.029 16.848C161.445 16.912 161.749 17.104 161.941 17.424C162.293 17.872 162.485 18.32 162.517 18.768C162.581 19.184 162.357 19.856 161.845 20.784C161.717 21.136 161.557 21.52 161.365 21.936C161.173 22.32 161.077 22.576 161.077 22.704C161.045 22.768 160.981 22.992 160.885 23.376C160.821 23.728 160.741 24.064 160.645 24.384C160.549 24.704 160.453 24.864 160.357 24.864C160.229 24.992 160.085 25.328 159.925 25.872C159.797 26.416 159.669 27.024 159.541 27.696C159.445 28.336 159.381 28.912 159.349 29.424C159.317 29.904 159.365 30.144 159.493 30.144C160.485 30.144 161.445 29.84 162.373 29.232C163.301 28.592 164.309 27.536 165.397 26.064L165.829 30.576C165.381 30.8 164.965 31.04 164.581 31.296C164.197 31.52 163.845 31.792 163.525 32.112C163.429 32.24 163.205 32.416 162.853 32.64C162.501 32.864 162.149 33.072 161.797 33.264C161.477 33.424 161.269 33.504 161.173 33.504C161.173 33.504 161.125 33.52 161.029 33.552C160.965 33.552 160.933 33.616 160.933 33.744C160.933 33.808 160.725 33.936 160.309 34.128C159.893 34.288 159.461 34.432 159.013 34.56C158.565 34.688 158.261 34.752 158.101 34.752ZM188.005 34.416C187.397 34.16 186.901 33.776 186.517 33.264C186.165 32.72 185.989 32.064 185.989 31.296C185.989 30.976 186.053 30.432 186.181 29.664C186.309 28.896 186.485 28.032 186.709 27.072C186.933 26.112 187.157 25.216 187.381 24.384C187.701 23.808 187.909 23.232 188.005 22.656C188.133 22.08 188.197 21.728 188.197 21.6C188.261 21.216 188.373 20.704 188.533 20.064C188.693 19.424 188.853 18.848 189.013 18.336C189.205 17.792 189.333 17.488 189.397 17.424C189.557 17.264 189.829 17.168 190.213 17.136C190.597 17.104 190.981 17.152 191.365 17.28C191.749 17.376 192.005 17.584 192.133 17.904C192.485 18.288 192.677 18.864 192.709 19.632C192.773 20.4 192.629 21.296 192.277 22.32C191.989 22.96 191.701 23.712 191.413 24.576C191.125 25.44 190.869 26.24 190.645 26.976C190.453 27.68 190.341 28.16 190.309 28.416L188.581 28.368C189.125 27.856 189.637 27.328 190.117 26.784C190.597 26.208 190.949 25.76 191.173 25.44C191.717 24.704 192.181 24.096 192.565 23.616C192.981 23.104 193.509 22.496 194.149 21.792C194.789 21.056 195.477 20.544 196.213 20.256C196.949 19.936 197.493 19.776 197.845 19.776C198.549 19.904 199.173 20.272 199.717 20.88C200.293 21.456 200.645 22.32 200.773 23.472C200.773 23.92 200.725 24.448 200.629 25.056C200.565 25.664 200.533 25.968 200.533 25.968C200.533 25.968 200.789 25.648 201.301 25.008C201.845 24.368 202.565 23.648 203.461 22.848C204.069 22.4 204.661 22.144 205.237 22.08C205.813 21.984 206.325 22.176 206.773 22.656C207.605 23.104 208.213 23.888 208.597 25.008C208.981 26.128 209.109 27.392 208.981 28.8C208.885 29.632 208.885 30.304 208.981 30.816C209.109 31.296 209.237 31.728 209.365 32.112C209.781 32.688 209.845 33.2 209.557 33.648C209.269 34.064 209.013 34.272 208.789 34.272C208.469 34.272 207.989 34.208 207.349 34.08C206.709 33.952 206.117 33.728 205.573 33.408C205.061 33.088 204.805 32.656 204.805 32.112V29.136C204.805 28.432 204.773 27.92 204.709 27.6C204.677 27.248 204.597 27.024 204.469 26.928C204.117 26.736 203.685 26.88 203.173 27.36C202.661 27.84 202.101 28.528 201.493 29.424C200.917 30.288 200.293 31.264 199.621 32.352C199.013 33.344 198.517 33.952 198.133 34.176C197.749 34.368 197.381 34.352 197.029 34.128C196.325 33.904 195.877 33.6 195.685 33.216C195.525 32.8 195.509 32.336 195.637 31.824C195.797 31.28 195.989 30.576 196.213 29.712C196.469 28.848 196.709 28.016 196.933 27.216C197.157 26.384 197.301 25.776 197.365 25.392C197.237 25.136 197.013 25.056 196.693 25.152C196.405 25.216 196.101 25.36 195.781 25.584C195.397 25.84 194.981 26.112 194.533 26.4C194.117 26.688 193.621 27.296 193.045 28.224C192.661 28.832 192.229 29.504 191.749 30.24C191.269 30.944 190.821 31.584 190.405 32.16C190.021 32.736 189.701 33.136 189.445 33.36C189.221 33.936 189.013 34.304 188.821 34.464C188.629 34.592 188.357 34.576 188.005 34.416ZM214.949 34.992C214.821 34.736 214.533 34.48 214.085 34.224C213.669 33.968 213.461 33.776 213.461 33.648C213.461 33.52 213.381 33.328 213.221 33.072C213.093 32.784 212.965 32.576 212.837 32.448C212.677 32.256 212.725 31.792 212.981 31.056C213.237 30.288 213.621 29.36 214.133 28.272C214.645 27.184 215.205 26.08 215.813 24.96C216.069 24.704 216.325 24.368 216.581 23.952C216.837 23.536 217.029 23.264 217.157 23.136C217.157 23.008 217.205 22.896 217.301 22.8C217.397 22.672 217.509 22.608 217.637 22.608L218.021 21.84C218.085 21.712 218.277 21.456 218.597 21.072C218.949 20.688 219.365 20.272 219.845 19.824C220.325 19.344 220.805 18.896 221.285 18.48C221.797 18.064 222.213 17.76 222.533 17.568C223.205 17.12 223.893 16.912 224.597 16.944C225.333 16.976 225.957 17.2 226.469 17.616C226.565 17.712 226.773 17.904 227.093 18.192C227.445 18.48 227.829 18.8 228.245 19.152C228.693 19.504 229.077 19.824 229.397 20.112L231.173 21.696L230.357 24.096C229.941 25.376 229.829 26.496 230.021 27.456C230.213 28.416 230.517 29.248 230.933 29.952C231.093 30.304 231.301 30.576 231.557 30.768C231.845 30.96 232.213 31.088 232.661 31.152C232.917 31.184 233.157 31.28 233.381 31.44C233.605 31.6 233.717 31.856 233.717 32.208C233.717 32.976 233.573 33.536 233.285 33.888C233.029 34.208 232.741 34.4 232.421 34.464C231.365 34.592 230.357 34.48 229.397 34.128C228.437 33.776 227.573 32.864 226.805 31.392C226.677 31.2 226.501 30.848 226.277 30.336C226.085 29.792 225.973 29.44 225.941 29.28C225.813 29.44 225.637 29.648 225.413 29.904C225.221 30.128 225.029 30.336 224.837 30.528C222.565 32.832 220.613 34.336 218.981 35.04C217.381 35.712 216.037 35.696 214.949 34.992ZM217.589 31.008C217.813 31.04 218.165 30.928 218.645 30.672C219.125 30.384 219.765 29.92 220.565 29.28C221.653 28.352 222.549 27.584 223.253 26.976C223.957 26.368 224.645 25.584 225.317 24.624L226.373 22.896C226.053 22.16 225.765 21.68 225.509 21.456C225.253 21.232 224.997 21.12 224.741 21.12C224.325 21.12 223.829 21.392 223.253 21.936C222.677 22.448 222.021 23.216 221.285 24.24C220.581 25.232 219.781 26.48 218.885 27.984C218.469 28.688 218.149 29.376 217.925 30.048C217.701 30.688 217.589 31.008 217.589 31.008ZM239.587 36.048C239.235 35.984 238.851 35.776 238.435 35.424C238.019 35.04 237.635 34.624 237.283 34.176C236.963 33.696 236.755 33.296 236.659 32.976C236.659 32.912 236.611 32.832 236.515 32.736C236.451 32.64 236.419 32.592 236.419 32.592C236.291 32.496 236.211 32.08 236.179 31.344C236.179 30.576 236.227 29.728 236.323 28.8C236.419 27.872 236.531 27.136 236.659 26.592C236.819 26.08 237.059 25.392 237.379 24.528C237.699 23.632 237.971 22.832 238.195 22.128L239.491 19.344L237.571 18.816C237.347 18.752 237.155 18.624 236.995 18.432C236.867 18.24 236.803 18.08 236.803 17.952C236.803 17.696 236.947 17.328 237.235 16.848C237.523 16.368 237.731 16.128 237.859 16.128C238.019 16.16 238.307 16.176 238.723 16.176C239.171 16.176 239.603 16.16 240.019 16.128C240.435 16.096 240.691 16.064 240.787 16.032C240.915 15.968 241.043 15.888 241.171 15.792C241.299 15.664 241.395 15.488 241.459 15.264C241.619 14.912 241.763 14.64 241.891 14.448C242.019 14.256 242.195 13.968 242.419 13.584C242.643 13.168 242.819 12.816 242.947 12.528C243.107 12.24 243.347 11.84 243.667 11.328C243.827 11.104 244.003 10.832 244.195 10.512C244.387 10.192 244.627 9.92 244.915 9.696C245.203 9.44 245.667 9.264 246.307 9.168C246.979 9.04 247.555 9.184 248.035 9.6C248.291 9.92 248.435 10.224 248.467 10.512C248.499 10.8 248.371 11.168 248.083 11.616C247.827 12.16 247.523 12.656 247.171 13.104C246.851 13.52 246.547 14 246.259 14.544C245.747 15.248 245.651 15.648 245.971 15.744C246.291 15.84 247.187 15.776 248.659 15.552C249.587 15.392 250.259 15.488 250.675 15.84C251.091 16.192 251.331 16.64 251.395 17.184C251.491 17.952 251.411 18.416 251.155 18.576C250.899 18.736 250.163 18.816 248.947 18.816C248.179 18.944 247.523 19.024 246.979 19.056C246.435 19.056 246.035 19.056 245.779 19.056C245.363 19.088 245.091 19.104 244.963 19.104C244.835 19.104 244.643 19.136 244.387 19.2C244.131 19.264 243.939 19.376 243.811 19.536C243.715 19.664 243.603 19.856 243.475 20.112C243.347 20.24 243.155 20.576 242.899 21.12C242.643 21.664 242.323 22.256 241.939 22.896C241.491 24.24 241.107 25.536 240.787 26.784C240.499 28 240.243 29.216 240.019 30.432C239.923 31.04 239.939 31.488 240.067 31.776C240.227 32.032 240.643 32.192 241.315 32.256C241.667 32.288 242.179 32.288 242.851 32.256C243.523 32.192 244.083 32.096 244.531 31.968C244.883 31.808 245.251 31.648 245.635 31.488C246.019 31.296 246.371 31.104 246.691 30.912C246.979 30.752 247.267 30.592 247.555 30.432C247.843 30.24 247.987 30.144 247.987 30.144C248.147 29.888 248.371 29.936 248.659 30.288C248.979 30.608 249.203 30.96 249.331 31.344C249.331 31.728 249.251 32.192 249.091 32.736C248.931 33.248 248.339 33.792 247.315 34.368C245.875 35.264 244.435 35.808 242.995 36C241.555 36.192 240.419 36.208 239.587 36.048ZM257.254 35.616C256.55 35.616 256.022 35.584 255.67 35.52C255.35 35.456 255.11 35.36 254.95 35.232C254.79 35.104 254.582 34.928 254.326 34.704C254.198 34.448 253.974 34.128 253.654 33.744C253.334 33.328 253.11 33.056 252.982 32.928C252.854 32.448 252.806 31.792 252.838 30.96C252.902 30.128 253.046 29.232 253.27 28.272C253.494 27.312 253.766 26.448 254.086 25.68C254.214 25.424 254.326 25.168 254.422 24.912C254.518 24.656 254.566 24.528 254.566 24.528C254.566 24.368 254.758 23.984 255.142 23.376C255.558 22.768 256.006 22.128 256.486 21.456C256.998 20.784 257.414 20.304 257.734 20.016C257.958 19.76 258.294 19.488 258.742 19.2C259.222 18.912 259.638 18.704 259.99 18.576C260.342 18.448 260.822 18.288 261.43 18.096C262.038 17.872 262.582 17.76 263.062 17.76C263.51 17.76 263.99 17.856 264.502 18.048C265.014 18.24 265.446 18.576 265.798 19.056C266.374 19.632 266.742 20.32 266.902 21.12C267.062 21.92 267.078 22.608 266.95 23.184C266.79 23.824 266.47 24.352 265.99 24.768C265.51 25.152 264.998 25.36 264.454 25.392C263.91 25.392 263.43 25.168 263.014 24.72C262.886 24.464 262.822 24.256 262.822 24.096C262.822 23.904 262.886 23.632 263.014 23.28C263.142 22.832 263.206 22.432 263.206 22.08C263.206 21.728 263.062 21.552 262.774 21.552C262.358 21.552 262.022 21.68 261.766 21.936C261.51 22.16 261.126 22.544 260.614 23.088C260.39 23.344 260.102 23.712 259.75 24.192C259.398 24.672 259.046 25.2 258.694 25.776C258.374 26.32 258.086 26.88 257.83 27.456C257.478 28.512 257.254 29.2 257.158 29.52C257.094 29.808 257.062 29.952 257.062 29.952C257.062 30.08 257.046 30.208 257.014 30.336C256.982 30.432 256.966 30.544 256.966 30.672C256.966 31.056 257.19 31.36 257.638 31.584C257.99 31.808 258.278 31.92 258.502 31.92C258.758 31.888 259.238 31.712 259.942 31.392C260.454 31.136 260.934 30.8 261.382 30.384C261.862 29.968 262.358 29.6 262.87 29.28C263.222 29.056 263.494 28.864 263.686 28.704C263.91 28.544 264.022 28.528 264.022 28.656C264.022 28.784 264.07 28.848 264.166 28.848C264.262 28.848 264.374 28.784 264.502 28.656C264.694 28.4 264.934 28.304 265.222 28.368C265.51 28.4 265.766 28.48 265.99 28.608C266.246 28.736 266.374 28.848 266.374 28.944C266.31 29.232 266.374 29.472 266.566 29.664C266.566 29.792 266.518 29.968 266.422 30.192C266.358 30.384 266.262 30.544 266.134 30.672C265.974 30.896 265.734 31.216 265.414 31.632C265.126 32.048 264.854 32.416 264.598 32.736C264.342 33.056 264.214 33.216 264.214 33.216C264.086 33.184 263.958 33.216 263.83 33.312C263.734 33.408 263.622 33.52 263.494 33.648C263.238 33.872 262.998 34.048 262.774 34.176C262.55 34.272 262.374 34.32 262.246 34.32C262.022 34.448 261.846 34.528 261.718 34.56C261.622 34.592 261.574 34.672 261.574 34.8C261.254 35.12 260.678 35.344 259.846 35.472C259.014 35.568 258.15 35.616 257.254 35.616ZM288.567 35.664C287.959 35.824 287.319 35.936 286.647 36C286.007 36.096 285.447 35.904 284.967 35.424C284.679 34.976 284.423 34.576 284.199 34.224C283.975 33.872 283.831 33.248 283.767 32.352C283.735 31.744 283.767 31.088 283.863 30.384C283.991 29.648 284.039 29.12 284.007 28.8C284.263 27.616 284.327 26.768 284.199 26.256C284.103 25.744 283.975 25.488 283.815 25.488C283.463 25.424 282.903 25.68 282.135 26.256C281.399 26.832 280.519 27.648 279.495 28.704C278.503 29.728 277.431 30.896 276.279 32.208C275.671 33.04 275.223 33.664 274.935 34.08C274.679 34.464 274.487 34.656 274.359 34.656C273.783 34.656 273.255 34.56 272.775 34.368C272.295 34.176 271.911 33.904 271.623 33.552C271.335 33.2 271.159 32.832 271.095 32.448C271.095 32.32 271.175 31.984 271.335 31.44C271.495 30.864 271.687 30.208 271.911 29.472C272.135 28.736 272.343 28.048 272.535 27.408C272.759 26.768 272.919 26.32 273.015 26.064C273.303 25.232 273.639 24.224 274.023 23.04C274.439 21.824 274.807 20.752 275.127 19.824C275.255 19.408 275.479 18.816 275.799 18.048C276.119 17.248 276.439 16.448 276.759 15.648C277.079 14.848 277.303 14.256 277.431 13.872C277.527 13.616 277.703 13.168 277.959 12.528C278.215 11.856 278.487 11.12 278.775 10.32C279.095 9.52 279.383 8.784 279.639 8.112C279.927 7.408 280.119 6.896 280.215 6.576C280.183 6.288 280.199 6.032 280.263 5.808C280.359 5.552 280.455 5.36 280.551 5.232C280.679 5.232 280.823 5.232 280.983 5.232C281.143 5.2 281.223 5.184 281.223 5.184C281.223 5.12 281.431 5.184 281.847 5.376C282.295 5.568 282.727 5.808 283.143 6.096C283.591 6.352 283.815 6.576 283.815 6.768C283.975 7.184 283.991 7.728 283.863 8.4C283.735 9.04 283.399 10.016 282.855 11.328C282.503 11.84 282.151 12.608 281.799 13.632C281.479 14.656 281.159 15.52 280.839 16.224C280.711 16.448 280.519 16.848 280.263 17.424C280.039 17.968 279.767 18.624 279.447 19.392C279.159 20.128 278.871 20.912 278.583 21.744C278.295 22.576 278.039 23.392 277.815 24.192C277.495 24.96 277.383 25.472 277.479 25.728C277.575 25.984 277.959 25.696 278.631 24.864C279.527 23.904 280.359 23.04 281.127 22.272C281.927 21.504 282.663 20.896 283.335 20.448C284.039 19.968 284.663 19.76 285.207 19.824C285.495 19.888 285.863 20.096 286.311 20.448C286.791 20.768 287.239 21.152 287.655 21.6C288.103 22.016 288.391 22.416 288.519 22.8C288.647 23.248 288.727 23.68 288.759 24.096C288.823 24.512 288.839 25.104 288.807 25.872C288.775 26.608 288.695 27.712 288.567 29.184C288.375 30.272 288.247 31.056 288.183 31.536C288.119 31.984 288.135 32.304 288.231 32.496C288.359 32.688 288.551 32.896 288.807 33.12C289.287 33.504 289.479 33.968 289.383 34.512C289.287 35.024 289.015 35.408 288.567 35.664ZM299.218 28.272C298.322 28.432 297.618 28.064 297.106 27.168C296.594 26.24 296.626 24.624 297.202 22.32C297.394 21.936 297.554 21.568 297.682 21.216C297.81 20.832 297.874 20.528 297.874 20.304C298.002 19.888 298.162 19.408 298.354 18.864C298.578 18.288 298.802 17.76 299.026 17.28C299.25 16.768 299.41 16.432 299.506 16.272C299.634 16.272 299.762 16.16 299.89 15.936C300.05 15.712 300.13 15.488 300.13 15.264C300.13 15.008 300.178 14.72 300.274 14.4C300.402 14.08 300.53 13.856 300.658 13.728C300.658 13.568 300.722 13.392 300.85 13.2C300.978 13.008 301.042 12.848 301.042 12.72C301.042 12.592 301.074 12.48 301.138 12.384C301.234 12.288 301.282 12.176 301.282 12.048C301.57 11.536 301.938 10.784 302.386 9.792C302.866 8.768 303.33 7.696 303.778 6.576C304.258 5.456 304.658 4.464 304.978 3.6C305.298 2.736 305.458 2.208 305.458 2.016C305.522 1.76 305.618 1.52 305.746 1.296C305.874 1.072 306.066 0.991999 306.322 1.056C306.45 0.959999 306.642 0.912 306.898 0.912C307.154 0.879998 307.346 0.863997 307.474 0.863997C307.474 0.863997 307.618 0.927998 307.906 1.056C308.194 1.184 308.45 1.376 308.674 1.632C308.93 1.856 309.074 2.16 309.106 2.544C309.138 2.928 309.154 3.312 309.154 3.696C309.122 4.304 308.898 4.992 308.482 5.76C308.066 6.528 307.602 7.376 307.09 8.304C306.77 8.912 306.45 9.488 306.13 10.032C305.842 10.576 305.698 10.912 305.698 11.04C305.698 11.168 305.634 11.36 305.506 11.616C305.378 11.872 305.234 12.192 305.074 12.576C304.882 12.896 304.69 13.28 304.498 13.728C304.338 14.176 304.194 14.592 304.066 14.976C303.938 15.328 303.874 15.552 303.874 15.648C303.842 15.776 303.794 15.904 303.73 16.032C303.698 16.16 303.618 16.288 303.49 16.416C303.362 16.416 303.282 16.512 303.25 16.704C303.25 16.864 303.25 16.944 303.25 16.944C303.25 17.072 303.17 17.376 303.01 17.856C302.882 18.304 302.658 18.848 302.338 19.488C301.73 21.184 301.298 22.544 301.042 23.568C300.786 24.56 300.626 25.408 300.562 26.112C300.498 26.88 300.322 27.408 300.034 27.696C299.746 27.952 299.474 28.144 299.218 28.272ZM296.674 35.712C296.002 35.968 295.442 36.08 294.994 36.048C294.546 36.048 294.05 35.84 293.506 35.424C292.866 34.784 292.642 34.144 292.834 33.504C293.058 32.832 293.634 32.192 294.562 31.584C295.202 31.168 295.666 30.96 295.954 30.96C296.274 30.928 296.738 31.04 297.346 31.296C298.434 31.968 298.914 32.72 298.786 33.552C298.658 34.352 297.954 35.072 296.674 35.712Z" fill="white"/>
</svg>
