<svg width="20" height="20" viewBox="0 0 20 20" fill="none" xmlns="http://www.w3.org/2000/svg">
<path d="M18.35 14.0167L15.7417 7.91667C15.2667 6.8 14.5583 6.16667 13.75 6.125C12.95 6.08333 12.175 6.64167 11.5833 7.70833L10 10.55C9.66667 11.15 9.19167 11.5083 8.675 11.55C8.15 11.6 7.625 11.325 7.2 10.7833L7.01667 10.55C6.425 9.80833 5.69167 9.45 4.94167 9.525C4.19167 9.6 3.55 10.1167 3.125 10.9583L1.68333 13.8333C1.16667 14.875 1.21667 16.0833 1.825 17.0667C2.43333 18.05 3.49167 18.6417 4.65 18.6417H15.2833C16.4 18.6417 17.4417 18.0833 18.0583 17.15C18.6917 16.2167 18.7917 15.0417 18.35 14.0167Z" fill="#C0B0FF"/>
<path d="M5.80834 6.98333C7.36394 6.98333 8.625 5.72227 8.625 4.16667C8.625 2.61106 7.36394 1.35 5.80834 1.35C4.25273 1.35 2.99167 2.61106 2.99167 4.16667C2.99167 5.72227 4.25273 6.98333 5.80834 6.98333Z" fill="#C0B0FF"/>
</svg>
