<svg width="48" height="48" viewBox="0 0 48 48" fill="none" xmlns="http://www.w3.org/2000/svg">
<rect width="48" height="48" rx="24" fill="url(#paint0_radial_1075_29021)"/>
<path fill-rule="evenodd" clip-rule="evenodd" d="M30.5344 17.5909C30.1936 16.0809 28.6559 14.9989 27.0082 15.5888C25.9554 15.9658 25.691 16.479 25.6288 16.7367C25.5527 17.0524 25.6787 17.3126 25.7922 17.4112C26.2872 17.8415 26.3504 18.6044 25.9334 19.1151C25.5163 19.6259 24.777 19.6911 24.282 19.2608C24.1735 19.1665 24.0724 19.0632 23.9792 18.9521C23.886 19.0632 23.7848 19.1665 23.6763 19.2608C23.1813 19.6911 22.442 19.6259 22.025 19.1151C21.6079 18.6044 21.6711 17.8415 22.1661 17.4112C22.2796 17.3126 22.4057 17.0524 22.3295 16.7367C22.2673 16.479 22.0029 15.9658 20.9501 15.5888C19.3024 14.9989 17.7647 16.0809 17.424 17.5909C17.1777 18.6822 17.5189 19.7717 18.3178 20.8399C19.1225 21.9158 20.314 22.8527 21.4789 23.5204C22.0447 23.8447 22.2486 24.5809 21.9342 25.1647C21.6199 25.7485 20.9064 25.9589 20.3406 25.6346C18.9941 24.8627 17.5195 23.7311 16.4622 22.3174C15.3992 20.896 14.6825 19.0748 15.1411 17.0424C15.7603 14.2987 18.6054 12.1895 21.7185 13.304C22.7141 13.6604 23.475 14.1965 23.9792 14.8536C24.4833 14.1965 25.2442 13.6604 26.2399 13.304C29.3529 12.1895 32.198 14.2987 32.8172 17.0424C33.5472 20.2772 31.9724 22.6584 30.1895 24.2548C28.8045 25.4948 27.1136 26.4141 26.0589 26.9876C25.7931 27.1321 25.5677 27.2547 25.3977 27.3549C24.2727 28.0182 23.5179 28.5254 23.0288 29.0753C22.5955 29.5623 22.3608 30.0946 22.3608 30.9116C22.3608 31.8339 23.0853 32.5815 23.9792 32.5815C24.873 32.5815 25.5976 31.8339 25.5976 30.9116C25.5976 30.735 25.5714 30.567 25.5237 30.4102C25.4882 30.2935 25.4404 30.1821 25.3818 30.0775C25.0577 29.4994 25.2491 28.7597 25.8094 28.4253C26.3697 28.0909 27.0866 28.2885 27.4107 28.8665C27.5544 29.1229 27.6721 29.3972 27.7599 29.6855C27.8782 30.0741 27.9415 30.4864 27.9415 30.9116C27.9415 33.1696 26.1675 35 23.9792 35C21.7908 35 20.0168 33.1696 20.0168 30.9116C20.0168 29.4771 20.4797 28.3641 21.3021 27.4398C22.0686 26.5782 23.1276 25.9079 24.2348 25.2551C24.4928 25.103 24.7885 24.9414 25.1094 24.7662C26.168 24.188 27.5002 23.4605 28.6533 22.4281C30.1071 21.1265 30.9854 19.5894 30.5344 17.5909Z" fill="white"/>
<defs>
<radialGradient id="paint0_radial_1075_29021" cx="0" cy="0" r="1" gradientUnits="userSpaceOnUse" gradientTransform="translate(24) rotate(90) scale(48)">
<stop stop-color="#C184FF"/>
<stop offset="1" stop-color="#7557EF"/>
</radialGradient>
</defs>
</svg>
