<svg width="83" height="82" viewBox="0 0 83 82" fill="none" xmlns="http://www.w3.org/2000/svg">
<rect x="1.5" y="1" width="80" height="80" rx="40" fill="url(#paint0_radial_70_6128)"/>
<rect x="1.5" y="1" width="80" height="80" rx="40" stroke="url(#paint1_linear_70_6128)" stroke-width="2"/>
<path fill-rule="evenodd" clip-rule="evenodd" d="M56.2023 26.5796C55.4356 23.1821 51.9759 20.7476 48.2685 22.0749C45.8997 22.923 45.3048 24.0778 45.1649 24.6577C44.9935 25.3678 45.2771 25.9533 45.5325 26.1753C46.6462 27.1434 46.7884 28.8599 45.8501 30.0091C44.9118 31.1582 43.2482 31.305 42.1345 30.3368C41.8905 30.1246 41.6628 29.8922 41.4531 29.6423C41.2434 29.8922 41.0158 30.1246 40.7718 30.3368C39.658 31.305 37.9945 31.1582 37.0562 30.0091C36.1178 28.8599 36.26 27.1434 37.3738 26.1753C37.6291 25.9533 37.9128 25.3678 37.7414 24.6577C37.6014 24.0778 37.0066 22.923 34.6378 22.0749C30.9304 20.7476 27.4707 23.1821 26.704 26.5796C26.1498 29.035 26.9176 31.4862 28.7151 33.8897C30.5257 36.3105 33.2065 38.4185 35.8275 39.9209C37.1006 40.6507 37.5593 42.3071 36.852 43.6207C36.1448 44.9342 34.5394 45.4075 33.2664 44.6778C30.2368 42.9412 26.9189 40.3949 24.54 37.2142C22.1481 34.0161 20.5356 29.9184 21.5676 25.3455C22.9608 19.172 29.3622 14.4263 36.3666 16.934C38.6068 17.736 40.3188 18.9421 41.4531 20.4206C42.5874 18.9421 44.2995 17.736 46.5397 16.934C53.5441 14.4263 59.9455 19.172 61.3387 25.3455C62.9812 32.6238 59.4379 37.9815 55.4263 41.5732C52.31 44.3633 48.5057 46.4318 46.1326 47.7221C45.5344 48.0473 45.0272 48.3231 44.6449 48.5485C42.1135 50.041 40.4154 51.1822 39.3147 52.4193C38.3399 53.5151 37.8117 54.7128 37.8117 56.5511C37.8117 58.6262 39.442 60.3084 41.4531 60.3084C43.4642 60.3084 45.0946 58.6262 45.0946 56.5511C45.0946 56.1538 45.0357 55.7757 44.9283 55.423C44.8484 55.1604 44.7409 54.9098 44.609 54.6745C43.8798 53.3738 44.3106 51.7094 45.5712 50.957C46.8318 50.2045 48.4448 50.649 49.1741 51.9497C49.4974 52.5266 49.7623 53.1438 49.9598 53.7924C50.2259 54.6667 50.3684 55.5943 50.3684 56.5511C50.3684 61.6315 46.3769 65.75 41.4531 65.75C36.5294 65.75 32.5379 61.6315 32.5379 56.5511C32.5379 53.3234 33.5793 50.8193 35.4297 48.7395C37.1543 46.801 39.537 45.2928 42.0283 43.8239C42.6088 43.4816 43.2742 43.1182 43.9962 42.7239C46.3781 41.4231 49.3755 39.7861 51.9699 37.4632C55.2409 34.5346 57.2171 31.076 56.2023 26.5796Z" fill="white"/>
<defs>
<radialGradient id="paint0_radial_70_6128" cx="0" cy="0" r="1" gradientUnits="userSpaceOnUse" gradientTransform="translate(41.5 2) rotate(90) scale(78)">
<stop stop-color="#C184FF"/>
<stop offset="1" stop-color="#7557EF"/>
</radialGradient>
<linearGradient id="paint1_linear_70_6128" x1="2.50008" y1="-7.14135" x2="87.1543" y2="2.53576" gradientUnits="userSpaceOnUse">
<stop stop-color="#CF91FF"/>
<stop offset="0.609375" stop-color="#35FAEE"/>
<stop offset="0.96875" stop-color="#FFE999"/>
</linearGradient>
</defs>
</svg>
