<svg width="195" height="230" viewBox="0 0 195 230" fill="none" xmlns="http://www.w3.org/2000/svg">
<path d="M194.333 9.39583C194.332 8.06202 194.02 6.74687 193.421 5.55523C192.822 4.36358 191.952 3.3284 190.882 2.5322C189.812 1.736 188.571 1.2008 187.257 0.969278C185.944 0.737753 184.594 0.816302 183.316 1.19866L69.1496 35.4487C67.3855 35.9766 65.8385 37.0591 64.7382 38.5357C63.6379 40.0124 63.043 41.8044 63.0417 43.6458V156.408C55.6356 151.252 46.7022 148.754 37.6957 149.322C28.6893 149.89 20.1402 153.49 13.4404 159.536C6.74063 165.581 2.28461 173.717 0.797815 182.618C-0.688979 191.519 0.881014 200.661 5.2522 208.556C9.62339 216.451 16.5383 222.634 24.8713 226.098C33.2042 229.562 42.4644 230.104 51.1443 227.635C59.8242 225.165 67.4126 219.83 72.6741 212.498C77.9356 205.167 80.5604 196.27 80.1211 187.256C80.152 186.956 80.1673 186.655 80.1667 186.354V95.683L177.208 66.5705V133.586C169.802 128.43 160.869 125.932 151.862 126.5C142.856 127.068 134.307 130.668 127.607 136.714C120.907 142.759 116.451 150.895 114.964 159.796C113.478 168.697 115.048 177.839 119.419 185.734C123.79 193.629 130.705 199.812 139.038 203.276C147.371 206.741 156.631 207.282 165.311 204.813C173.991 202.343 181.579 197.008 186.841 189.677C192.102 182.345 194.727 173.448 194.288 164.434C194.319 164.131 194.334 163.826 194.333 163.521V9.39583Z" fill="#E5E1F1"/>
</svg>
