<svg width="20" height="20" viewBox="0 0 20 20" fill="none" xmlns="http://www.w3.org/2000/svg">
<path d="M17.4083 4.31667V13.7333C17.4083 15.3833 16.0667 16.725 14.4167 16.725C12.775 16.725 11.425 15.3833 11.425 13.7333C11.425 12.0917 12.775 10.75 14.4167 10.75C15.1167 10.75 15.7417 10.9917 16.25 11.3917V6.43334L8.57501 8.61667V15.3417C8.57501 16.9917 7.22501 18.3333 5.58334 18.3333C3.93334 18.3333 2.59167 16.9917 2.59167 15.3417C2.59167 13.7 3.93334 12.3583 5.58334 12.3583C6.27501 12.3583 6.90001 12.6 7.40834 12.9917V5.625C7.40834 4.4 8.15001 3.45 9.32501 3.13334L14.1417 1.81667C15.1167 1.55 15.9417 1.64167 16.525 2.09167C17.1167 2.53334 17.4083 3.28333 17.4083 4.31667Z" fill="#C0B0FF"/>
</svg>
