<svg width="20" height="20" viewBox="0 0 20 20" fill="none" xmlns="http://www.w3.org/2000/svg">
<path d="M5.83341 1.66675H5.00008C2.50008 1.66675 1.66675 3.15841 1.66675 5.00008V5.83342V17.5001C1.66675 18.1917 2.45008 18.5834 3.00008 18.1667L4.42508 17.1001C4.75841 16.8501 5.22508 16.8834 5.52508 17.1834L6.90841 18.5751C7.23341 18.9001 7.76675 18.9001 8.09175 18.5751L9.49175 17.1751C9.78341 16.8834 10.2501 16.8501 10.5751 17.1001L12.0001 18.1667C12.5501 18.5751 13.3334 18.1834 13.3334 17.5001V3.33341C13.3334 2.41675 14.0834 1.66675 15.0001 1.66675H5.83341ZM9.37508 11.4584H5.62508C5.28341 11.4584 5.00008 11.1751 5.00008 10.8334C5.00008 10.4917 5.28341 10.2084 5.62508 10.2084H9.37508C9.71675 10.2084 10.0001 10.4917 10.0001 10.8334C10.0001 11.1751 9.71675 11.4584 9.37508 11.4584ZM10.0001 8.12508H5.00008C4.65841 8.12508 4.37508 7.84175 4.37508 7.50008C4.37508 7.15841 4.65841 6.87508 5.00008 6.87508H10.0001C10.3417 6.87508 10.6251 7.15841 10.6251 7.50008C10.6251 7.84175 10.3417 8.12508 10.0001 8.12508Z" fill="#9251D9"/>
<path d="M15.0083 1.66675V2.91675C15.5583 2.91675 16.0833 3.14175 16.4666 3.51675C16.8666 3.92508 17.0833 4.45008 17.0833 5.00008V7.01675C17.0833 7.63342 16.8083 7.91675 16.1833 7.91675H14.5833V3.34175C14.5833 3.10842 14.7749 2.91675 15.0083 2.91675V1.66675ZM15.0083 1.66675C14.0833 1.66675 13.3333 2.41675 13.3333 3.34175V9.16675H16.1833C17.4999 9.16675 18.3333 8.33342 18.3333 7.01675V5.00008C18.3333 4.08341 17.9583 3.25008 17.3583 2.64175C16.7499 2.04175 15.9249 1.67508 15.0083 1.66675C15.0166 1.66675 15.0083 1.66675 15.0083 1.66675Z" fill="#9251D9"/>
</svg>
