<svg width="20" height="20" viewBox="0 0 20 20" fill="none" xmlns="http://www.w3.org/2000/svg">
<path d="M12.275 1.66666H7.72498V5.3H12.275V1.66666Z" fill="#C0B0FF"/>
<path d="M13.525 1.66666V5.3H18.225C17.8 3.00833 16.1084 1.675 13.525 1.66666Z" fill="#C0B0FF"/>
<path d="M1.66663 6.55V13.4917C1.66663 16.525 3.47496 18.3333 6.50829 18.3333H13.4916C16.525 18.3333 18.3333 16.525 18.3333 13.4917V6.55H1.66663ZM12.0333 13.4833L10.3 14.4833C9.93329 14.6917 9.57496 14.8 9.24163 14.8C8.99163 14.8 8.76663 14.7417 8.55829 14.625C8.07496 14.35 7.80829 13.7833 7.80829 13.05V11.05C7.80829 10.3167 8.07496 9.75 8.55829 9.475C9.04163 9.19167 9.65829 9.24167 10.3 9.61667L12.0333 10.6167C12.675 10.9833 13.025 11.5 13.025 12.0583C13.025 12.6167 12.6666 13.1083 12.0333 13.4833Z" fill="#C0B0FF"/>
<path d="M6.47502 1.66666C3.89169 1.675 2.20002 3.00833 1.77502 5.3H6.47502V1.66666Z" fill="#C0B0FF"/>
</svg>
